<svg width="926" height="624" fill="none" xmlns="http://www.w3.org/2000/svg"><path d="M625.693 210.258c.828-.478 1.049-1.395.615-2.763a20.76 20.76 0 0 1-1.646-6.746c-.092-.775-.183-1.275-.333-1.465-.017-.03-.034-.059-.063-.042l-.047 1.013c.038.886.066 1.344.006 1.378l-.108-.53c-.258-1.745-.751-3.078-1.438-4.063-.098-.101-.132-.161-.192-.126-.16.132-.093 1.001.22 2.636.142.588.263 1.071.358 1.372.228.736.341 1.342.279 1.851-.011.322-.15.56-.387.697-.236.137-.324.464-.275 1.027.049.564.038.886-.08.954-.059.035-.106.022-.187-.05-.103-.177-.231-.537-.327-1.113l-.13-.635a32.8 32.8 0 0 1-.727-4.199 30.049 30.049 0 0 0-.958-4.735c-.116-.407-.333-1.465-.591-3.211-.323-2.063-.524-3.368-.556-3.902-.009-.153-.083-.623-.222-1.411-.168-.495.021-.92.554-1.228.77-.444 1.022-.827.805-1.135-.115-.131-.272-.198-.476-.278-.234-.062-.374-.1-.425-.189l-.017-.029c-.051-.089-.031-.259.108-.497 1.74-2.386 3.653-4.2 5.665-5.363.829-.478 1.65-.834 2.51-1.054a7.03 7.03 0 0 1-2.011 1.714c-.236.136-.444.256-.638.329-.77.444-1.303.752-1.582.952-.469.35-.738.703-.851 1.123-.021.17.001.276.035.335.15.19.586.057 1.355-.387.711-.411 1.619-1.093 2.772-2.035l1.521-1.194c.22-.166.44-.333.736-.503.296-.171.592-.342.846-.449.283-.125.52-.261.727-.381.237-.137.474-.273.634-.405.397-.269.65-.652.758-1.149l-.004-.076c-.035-.059-.175-.097-.45-.095-.327-.088-.531-.168-.582-.256-.017-.03-.005-.077.054-.111a.262.262 0 0 0 .183-.026c.148-.085.104-.297-.13-.635-.235-.339-.49-.507-.753-.552-.217-.033-.475-.003-.746.075-.347.082-.547.079-.645-.023-.068-.118-.043-.211.105-.297.118-.068.284-.124.508-.214.241-.06.448-.18.685-.317.385-.222.532-.583.436-1.159-.108-.53-.242-.966-.476-1.304-.48-.078-1.394.252-2.726 1.021a49.318 49.318 0 0 0-6.53 4.481c-1.153.942-1.855 1.505-2.091 1.641-.047-.012-.128-.084-.243-.215l-.342-.592a4.16 4.16 0 0 0-.649-1.125c-.069-.118-.132-.16-.179-.173l.15.466c.168.495.186.801.068.869-.165.056-.322-.011-.437-.142-.103-.178-.215-.508-.259-.995-.04-.411-.007-.628.141-.713.059-.034.229-.014.403.083.204.079.373.1.433.066.148-.086.04-.34-.245-.767l-.38-.452c-.269-.397-.435-.617-.44-.693-.004-.076.008-.123.068-.157.059-.034.135-.039.241-.06a.644.644 0 0 0 .241-.061c.148-.085.152-.285-.036-.61-.197-.478-.199-.754-.021-.857.207-.119.209-.594.006-1.424-.091-.5-.203-.83-.352-1.02-.098-.102-.162-.144-.268-.122-.3.095-.482.121-.499.091l-.081-.071c-.034-.06.05-.187.27-.353.434-.409.586-.694.483-.872l-.217-.308c-.384-.528-1.419-.681-3.118-.41l-1.5.273 1.2-.929c1.212-.976 1.837-1.535 1.875-1.675-.043-.211-.146-.389-.266-.596-.115-.131-.208-.156-.326-.088-.119.069-.144.162-.029.293.034.059-.008.123-.156.208-.385.223-.855.297-1.453.287-.246-.016-.386-.054-.467-.125-.285-.427-.139-.788.394-1.096l.922-.454c.415-.239.617-.435.591-.617-.009-.152.401-.468 1.23-.947l1.319-.722c1.51-.871 2.494-1.558 2.908-2.073.131-.115.202-.196.291-.247.148-.086.271-.078.352-.006.081.071.25.092.492.031.288-.047.571-.172.944-.347.786-.415 1.257-.489 1.504-.198.085.148.06.242-.088.327l-.194.073c-.306.018-.932.301-1.879.848-.947.547-1.527.842-1.751.932-.207.12-.223.366-.001.75.149.19.264.321.375.376.11.055.576-.096 1.392-.528.859-.495 1.298-.828 1.289-.98.126-.192.536-.507 1.187-.883.178-.103.627-.283 1.346-.541a12.953 12.953 0 0 1 1.774-.55c.936-.225 1.555-.109 1.905.36.201.279.326.838.347 1.695-.019.445.029.733.097.851a.365.365 0 0 0 .199.004l.317-.341c.612-.511 1.067-1.09 1.366-1.736.309-.968.523-1.486.582-1.52.106-.022.216.033.349.193.29.504.394.957.277 1.301-.071.356-.087.602.028.733l.064.042c.059-.034.169-.255.281-.675.142-.438.263-.981.328-1.689.035-.691.011-1.348-.137-2.013a4.27 4.27 0 0 0-.745-1.701c-.618-.866-1.541-1.439-2.814-1.73-1.438-.235-3.023-.11-4.78.471a25.448 25.448 0 0 0-4.743 2.107l-.901.559c-.003.199-.206.395-.531.583l-.284.124c-.554.202-.914.331-1.092.433-.089.052-.177.103-.249.184-.469.35-1.222.823-2.198 1.387-1.742 1.085-3.349 2.131-4.756 3.18-.688.516-1.098.832-1.195 1.006-.126.191-.316.34-.583.494-.266.154-.748.55-1.415 1.172-.625.559-1.583 1.428-2.981 2.629-.714.61-1.457 1.236-2.154 1.875l-.988.887a26.576 26.576 0 0 0-3.9 3.909c-1.197 1.481-1.825 3.264-1.943 5.384-.065.709-.037 1.166.112 1.356l.017.03c.179.173.641.222 1.416.129-.121.268-.218.442-.315.617a3.448 3.448 0 0 0-.465 1.176c-.041.339.05.839.303 1.482l.146.39c.104.453.25.842.433 1.092.184.249.4.282.654.175.592-.342.966-.992 1.17-1.939.112-.42.301-.845.507-1.24a20.67 20.67 0 0 0 1.63-2.441c.875-1.492 1.482-2.355 1.837-2.56.047.013.106-.022.195-.073.237-.137.481-.396.764-.796.252-.383.628-.757 1.092-1.184l.161-.132c.308-.217.845-.724 1.668-1.554.173-.179.62-.635 1.359-1.338a3.45 3.45 0 0 1 .701-.562c.503-.291 1.335-.969 2.467-2.017a.554.554 0 0 1 .114-.144c.148-.086.288-.048.437.142.269.397.545 1.422.828 3.074l1.285 6.875c.426 2.241.601 3.639.54 4.148a2.22 2.22 0 0 1-.424.837c-.186.226-.502.566-.886 1.064-1.716 2.017-2.822 3.247-3.362 3.678-.427.286-.815.707-1.135 1.247-.24.336-.552.753-.906 1.234-.742.902-1.181 1.51-1.315 1.824-.095.45-.009.874.26 1.271.252.368.537.519.842.501.305-.019.538.044.734.247.081.071.196.202.371.299.684.433 1.151.559 1.375.469.254-.108.39-.146.449-.18.355-.206.718-.534 1.072-1.014a46.477 46.477 0 0 1 3.092-3.601c.11.055.174.097.263.046.059-.034.106-.022.123.008l-.042.064c-.144.161-.152.284-.083.403.08.071.238.138.441.218.497.108.828.272 1.012.521.166.22.231.538.212.983-.091.526.619 4.695 2.146 12.535.122.758.312 1.635.618 2.643.215.783.498 1.409.801 1.866.132.16.264.321.426.464 2.441 1.63 4.452 1.969 6.021 1.063Zm-6.538-25.747c-.212.043-.386-.053-.587-.332-.097-.102-.072-.195.016-.246.119-.069.195-.073.306-.019.11.055.191.127.272.198.119.208.111.331-.007.399Zm-18.493-9.609c-.237.136-.389.146-.487.044-.167-.219.427-1.036 1.765-2.479 1.671-1.754 2.743-2.768 3.217-3.042l.089-.051c.355-.205.748-.55 1.203-1.129.443-.532.895-.911 1.309-1.15l.431-.21c.326-.188.6-.465.794-.813.193-.349.438-.608.734-.779.474-.274.826-.279 1.085-.035.12.208.028.458-.34.71-.368.252-.612.511-.764.796-.151.285-.591.617-1.271 1.01-.677.47-.951.747-.883.865.115.131.031.259-.235.412l-.774.368c-.326.188-.452.38-.379.574.073.195.035.335-.113.421-.089.051-.178.102-.301.094-.135.039-.33.112-.567.249-.503.29-.972.64-1.419 1.095-.895.912-1.629 1.691-2.22 2.308-.346.358-.637.605-.874.742Zm25.047-18.961c-.385.223-.791.339-1.244.443-.424.086-.704.011-.819-.12-.051-.089-.026-.182.151-.284.237-.137.762-.322 1.516-.52.529-.109.817-.156.886-.038.017.03.017.03-.025.093a1.626 1.626 0 0 1-.465.426Zm-3.432 45.12.037-.14c-.004-.077-.001-.276-.019-.581a4.996 4.996 0 0 0-.094-1.051c-.069-.394-.122-.758-.187-1.076a2.52 2.52 0 0 0-.257-.72l-.123-.007c-.104.572-.046 1.289.192 2.178.168.771.272 1.224.387 1.355.017.029.034.059.064.042Zm-.548-4.025c.131-.115.065-.709-.093-1.802-.252-1.393-.519-2.266-.805-2.692-.08-.072-.097-.102-.127-.085-.118.069-.147.361-.085.878.098 1.128.262 1.822.48 2.131l.052.364c-.046-.012-.046-.012-.076.005s-.089.051-.084.127c.09.224.21.432.329.639.115.131.247.291.409.435Zm-.231-2.314a.265.265 0 0 1-.026-.182c-.017-.03-.005-.077-.022-.106.013-.047-.021-.106-.009-.153-.017-.029-.004-.076-.068-.118.056.165.031.258-.058.31-.03.017-.111-.055-.196-.203-.183-.249-.359-.622-.514-1.164-.082-.347-.108-.529-.066-.593.059-.034.169.021.314.134.286.427.483.906.528 1.393.149.19.163.419.117.682Zm-.438-2.194c.089-.051.088-.327.073-.831-.045-.488-.093-.776-.144-.865-.166-.219-.298-.38-.426-.464-.029.017-.042.064-.084.127-.025.094-.05.187-.058.31l-.024.369c-.037.14-.033.217-.016.246.017.03.069.119.107.254.039.135.108.254.159.343l.137.237c.132.16.2.278.276.274Zm-9.101.163c.249-.183.6-.464.958-.869.27-.353.396-.544.362-.603-.017-.03-.123-.008-.3.094l-.457.303-.743.627c-.245.259-.325.463-.244.535.052.089.157.067.335-.035l.089-.052Zm8.698-2.298c.113-.145.111-.696-.02-1.607l-.172-1.322c.06-.034.072-.081.085-.127-.012-.704-.086-1.174-.24-1.441a3.786 3.786 0 0 1-.286-.427c-.315-.409-.524-.565-.672-.48-.089.051.001.276.224.66-.085.128-.121.544-.05 1.213.141 1.339.379 2.229.635 2.673.017.029.005.076.039.135.004.076.038.135.06.241.022.106.056.165.073.195-.012.047.005.076.039.136.132.16.196.202.255.168l.03-.017Zm-6.892.505c.444-.256.549-.553.356-.955-.046-.013-.105.022-.165.056-.059.034-.148.085-.249.183a1.851 1.851 0 0 0-.312.417c-.067.157-.122.268-.041.339.052.089.204.08.411-.04Zm7.609-7.944c.059-.035.131-.115.232-.213.084-.128.139-.238.147-.361.037-.14.033-.217-.001-.276l-.047-.012c-.111-.055-.293-.029-.5.091-.19.149-.351.281-.477.473-.126.191-.134.314-.083.403.098.101.28.075.64-.054l.089-.051Zm1.156-1.142c.178-.102.233-.213.118-.344-.167-.219-.358-.346-.523-.29-.148.086-.186.226-.172.455l.051.088c.15.19.319.211.526.091Zm8.462-22.053c.266-.154.435-.409.535-.783.1-.373.116-.619.018-.72-.052-.089-.128-.085-.246-.016l-.169.255c-.382.773-.524 1.21-.426 1.312.034.059.14.037.288-.048Zm-14.727 3.135a3.481 3.481 0 0 0 1.051-1.12c.126-.191.316-.34.506-.49.237-.136.432-.209.643-.253.2.004.365-.052.454-.103.266-.154.316-.341.167-.531-.269-.397-.833-.348-1.632.113-1.095.632-1.809 1.242-2.129 1.782-.151.284-.137.513.029.733.149.19.437.142.793-.063l.118-.068Zm29.697 23.545c.088-.051.355-.205.782-.491.427-.286.974-1.115 1.689-2.475.315-.616.747-1.576 1.267-2.863.306-.768.499-1.393.607-1.889.078-.479.166-.806.245-1.01.097-.174.189-.425.294-.722.114-.145.264-.705.492-1.745.071-.356.104-.573.052-.661-.076.004-.173.178-.277.476a58.27 58.27 0 0 1-4.577 8.957c-.03.017-.042.064-.084.127a2.45 2.45 0 0 1-.186.226c-.042.064-.114.145-.19.149-.059.034-.106.022-.157-.067-.078-.271.005-.674.32-1.29.597-1.292 1.115-2.104 1.584-2.453.215-.243.379-.574.474-1.024.063-.234.113-.42.227-.565 1.676-3.454 2.969-7.161 3.922-11.184.349-1.583.464-2.478.344-2.686-.059.035-.335.786-.817 2.209l-.364 1.078c-.001-.275.284-1.9.873-4.845.241-1.087.311-1.719.242-1.837-.017-.03-.017-.03-.046-.013-.119.069-.445 1.007-.946 2.875-.916 3.607-2.189 7.145-3.802 10.641-.886 1.814-1.858 3.48-3.026 4.944-.641.804-1.325 1.396-1.993 1.743a2.837 2.837 0 0 1-1.559.308l-.199-.004c-.323-.011-.497-.108-.565-.226-.034-.059-.056-.165-.095-.301a1.148 1.148 0 0 0-.167-.495 3.412 3.412 0 0 0-.367-.499c-.103-.177-.218-.308-.303-.456-.154-.266-.121-.483.103-.573l.165-.056c.03-.017.042-.064.025-.093 0 0-.034-.059-.098-.101-.063-.043-.098-.102-.161-.144-.064-.042-.098-.101-.132-.16-.428-.74-.426-1.215.006-1.425l.508-.214c.774-.368 1.609-1.245 2.511-2.555.168-.255.399-.744.71-1.436.663-1.449 1.105-2.256 1.312-2.376l.017.03c.188.325-.067 1.183-.747 2.602a24.684 24.684 0 0 1-1.387 2.656c-.19.149-.406.392-.633.681l-.084.127c-.06.035-.131.116-.216.243-.101.098-.126.191-.092.251.017.029.111.054.246.016.288-.048.534-.033.649.098.128.085.268.122.446.02.088-.052.236-.137.397-.269 1.089-.984 2.039-2.757 2.779-5.236.409-1.341.328-2.439-.202-3.357-.085-.148-.149-.19-.238-.138-.059.034-.139.238-.268.628-.108.497-.23.764-.336.786l-.135.039c-.09-.224-.126-.559-.089-.975.044-.538-.009-.903-.128-1.11-.103-.178-.23-.262-.476-.278-.212.044-.404-.083-.574-.379-.213-.232-.384-.528-.572-.854-.196-.202-.528-.366-1.037-.427-.801-.09-1.572.079-2.287.413-1.354.663-2.431 1.6-3.214 2.842-1.122 2.226-1.679 4.679-1.671 7.358.016 1.806.367 3.577 1.088 5.371.128.36.299.656.47.952.188.326.406.634.687.985.299.38.809.717 1.536 1.087.552.273.964.508 1.317.778.336.24.714.417 1.092.593.408.159.947.204 1.65.192 1.501.002 2.624-.173 3.369-.524Zm-6.639-11.362c-.225.09-.377.099-.463-.049-.051-.088-.077-.271-.044-.487.04-.615.227-1.315.563-2.101.47-1.1 1.039-1.823 1.695-2.123.325-.188.588-.143.725.094.256.444.162 1.17-.342 2.211-.66 1.249-1.36 2.087-2.134 2.455Zm.811 4.071c.402-.193.68-.393.836-.602.156-.208.194-.348.16-.407-.069-.119-.204-.08-.428.01a6.034 6.034 0 0 0-.605.388c-.101.098-.139.239-.223.366-.067.157-.045.263-.011.322.017.03.093.025.271-.077Zm21.042-1.493c.089-.051.355-.205.782-.491.427-.286.975-1.115 1.689-2.475.316-.616.748-1.576 1.268-2.863.306-.769.498-1.393.606-1.889.079-.48.166-.806.246-1.01.097-.175.189-.425.293-.722.114-.145.264-.705.493-1.745.07-.356.103-.573.052-.662-.076.005-.173.179-.278.476a58.146 58.146 0 0 1-4.577 8.958c-.029.017-.042.064-.084.127-.042.064-.114.145-.185.226-.042.064-.114.144-.19.149-.06.034-.106.022-.158-.067-.077-.271.006-.674.321-1.29.596-1.292 1.114-2.104 1.583-2.454.215-.242.379-.574.475-1.023.062-.234.112-.421.226-.565 1.676-3.454 2.97-7.161 3.923-11.185.349-1.582.464-2.478.344-2.685-.059.034-.336.786-.817 2.208l-.364 1.079c-.001-.276.284-1.901.873-4.845.241-1.087.31-1.719.242-1.837-.017-.03-.017-.03-.047-.013-.118.069-.445 1.007-.945 2.875-.917 3.607-2.19 7.144-3.802 10.641-.887 1.814-1.859 3.48-3.026 4.944-.641.804-1.325 1.396-1.994 1.743-.52.26-1.02.352-1.558.308l-.2-.004c-.322-.011-.496-.108-.565-.226-.034-.059-.055-.165-.094-.301a1.133 1.133 0 0 0-.168-.495 3.337 3.337 0 0 0-.366-.499c-.103-.177-.218-.308-.304-.456-.153-.267-.12-.483.104-.573l.165-.056c.03-.017.042-.064.025-.093 0 0-.034-.059-.098-.102-.064-.042-.098-.101-.162-.143a.433.433 0 0 1-.132-.161c-.427-.74-.425-1.214.007-1.424l.507-.214c.775-.368 1.61-1.245 2.511-2.555.169-.255.4-.744.711-1.436.663-1.449 1.105-2.256 1.312-2.376l.017.03c.188.325-.067 1.183-.747 2.602a24.95 24.95 0 0 1-1.388 2.656c-.19.149-.405.391-.633.681l-.084.127c-.059.034-.131.115-.215.243-.101.098-.126.191-.092.25.017.03.11.055.246.016.288-.048.534-.032.649.099.127.084.268.122.445.019.089-.051.237-.136.397-.268 1.09-.985 2.04-2.757 2.779-5.236.41-1.341.329-2.439-.201-3.357-.085-.148-.149-.19-.238-.139-.059.035-.139.238-.269.629-.108.497-.229.764-.335.786l-.136.039c-.09-.225-.125-.559-.089-.975.044-.539-.008-.903-.128-1.11-.102-.178-.23-.262-.476-.278-.212.043-.403-.083-.574-.379-.213-.232-.384-.528-.572-.854-.196-.202-.527-.366-1.036-.428-.802-.089-1.573.08-2.288.413-1.353.664-2.43 1.601-3.213 2.842-1.122 2.227-1.679 4.68-1.672 7.359.017 1.806.368 3.577 1.088 5.371.129.36.3.656.471.952.188.325.406.634.687.985.298.38.809.717 1.535 1.087.553.273.965.508 1.318.778.336.24.714.417 1.092.593.408.159.946.203 1.65.192 1.501.002 2.624-.173 3.368-.524Zm-6.639-11.362c-.224.09-.376.099-.462-.049-.051-.089-.077-.271-.044-.487.039-.615.227-1.315.563-2.101.469-1.1 1.039-1.824 1.694-2.123.326-.188.589-.143.726.094.256.444.162 1.169-.342 2.21-.66 1.25-1.36 2.088-2.135 2.456Zm.811 4.071c.402-.193.681-.393.837-.602.156-.208.194-.348.159-.408-.068-.118-.203-.079-.428.011a6.042 6.042 0 0 0-.604.388c-.102.098-.139.238-.223.366-.068.157-.046.263-.012.322.017.03.094.025.271-.077Zm13.351-11.261a2.527 2.527 0 0 1 .082-.678c.025-.094.033-.217.041-.34.008-.123-.031-.258-.057-.44a5.175 5.175 0 0 1-.089-.975c.011-.322.056-.585.124-.742.042-.064.054-.111.096-.175a.797.797 0 0 0 .164-.331c.055-.111.092-.251.096-.45-.027-.182-.006-.352-.003-.551.004-.199-.006-.352-.015-.504-.009-.153.033-.217.033-.217-.086-.423-.088-.699-.003-.827.037-.14.096-.174.113-.144a.488.488 0 0 1 .179.173l.017.029c.064.043.081.072.128.085a.312.312 0 0 0 .115.131c.017.029.034.059.022.105-.029.293-.057.586-.064.984-.011.323-.01.598-.038.891-.029.292-.091.526-.205.671-.067.157-.164.331-.201.471-.05.187-.058.31-.066.433s-.004.199-.004.199l.014.229c.026.182.053.364.066.593.044.212.057.441.024.657.01.153-.011.322.011.428.009.153.001.276-.007.399.009.152-.041.339-.091.526-.033.216-.04.615.056 1.191.067.593.239 1.165.504 1.761.278.55.535.994.769 1.332.149.191.252.368.257.444.051.089.004.077-.14-.037-.116-.131-.265-.321-.495-.583a9.895 9.895 0 0 1-.606-.913 7.231 7.231 0 0 1-.531-1.193c-.099-.377-.13-.636-.122-.759a4.544 4.544 0 0 0-.075-.745c-.065-.318-.088-.699-.099-1.128Zm1.279-7.013c.089-.051.165-.056.241-.061a.19.19 0 0 1 .175.097c.034.059.021.106-.004.199-.042.064-.084.128-.173.179a.65.65 0 0 1-.271.078c-.093-.025-.14-.038-.174-.097a.188.188 0 0 1 .003-.199.648.648 0 0 1 .203-.196Zm1.401 11.86c-.49-.507-.854-1.48-1.03-2.878a25.051 25.051 0 0 1-.18-4.277c.065-1.459.2-2.524.405-3.194.311-.693.809-1.06 1.508-1.148.746-.075 1.307.075 1.758.446.256.444.468 1.427.56 2.953a21.68 21.68 0 0 1-.243 4.639c-.272 1.578-.806 2.636-1.584 3.203a1.22 1.22 0 0 1-.557.401c-.178.103-.382.023-.637-.145Zm8.882-7.654c-.245-.766-.439-1.443-.54-2.096a13.522 13.522 0 0 0-.496-1.884c-.128-.36-.223-.661-.237-.89a2.42 2.42 0 0 1-.019-.58 4.217 4.217 0 0 0-.094-1.051 3.7 3.7 0 0 1-.113-.606 3.023 3.023 0 0 1 .007-.399c.033-.216.002-.474-.076-.745a11.871 11.871 0 0 1-.408-2.212l-.144-.864a29.568 29.568 0 0 0-.065-.317c-.043-.212-.069-.394-.096-.577-.026-.182-.018-.305.066-.432.055-.111.161-.132.36-.129.263.045.428-.01.453-.104.025-.093.004-.199-.111-.33a1.155 1.155 0 0 0-.464-.324c-.064-.043-.157-.068-.221-.11-.127-.084-.221-.109-.285-.151-.046-.013-.063-.042-.08-.072.029-.017.042-.064.071-.081.059-.034.148-.085.203-.196a.953.953 0 0 0 .206-.395c.05-.186.066-.432.03-.767a35.257 35.257 0 0 0-.195-1.979c-.089-.975-.195-1.979-.272-3.001-.077-1.021-.097-1.877-.045-2.539.044-.538.088-1.077.145-1.662.025-1.12.147-2.138.304-3.097.146-.636.33-1.137.477-1.498.201-.472.284-.875.232-1.239-.082-.347-.432-.817-1.096-1.42a1.685 1.685 0 0 1-.328-.363c-.051-.089-.073-.195-.09-.224.012-.047-.005-.077-.022-.106-.017-.03-.034-.059-.081-.072-1.21-.524-2.406-.544-3.621-.119-.481.396-.859 1.246-1.074 2.514a30.496 30.496 0 0 0-.414 4.068c-.041 1.365-.04 2.391.013 3.031.072.945.18 2.225.288 3.78.115 1.908.253 3.446.386 4.632.088.699.133 1.462.196 2.255.095 1.326.228 2.513.444 3.572.152.741.304 1.482.438 2.194.009.153.048.288.087.424a8.396 8.396 0 0 0-3.62-.87c-1.4-.1-2.493.057-3.275.548-.752.474-1.372 1.384-1.828 2.713-.509 1.715-.644 3.806-.387 6.302.227 2.513.715 4.52 1.468 6.098.176.373.428.74.692 1.061 1.799 2.159 4.083 2.971 6.824 2.454 2.071-.446 3.383-1.795 3.937-4.049.03-.017.03-.017.013-.047.075-.28.184-.501.268-.628.114-.145.301-.095.543.12.154.267.338.516.508.812.423.664.863 1.357 1.362 2.016.516.689 1.006 1.195 1.528 1.486.413.235.808.441 1.233.63.425.189.739.323.96.432.233.063.467.126.73.171.246.016.568.027 1.043.029.369.024.696.112.917.221.11.054.22.109.314.134a.49.49 0 0 0 .241-.06c.207-.12.355-.205.461-.227.077-.005.136-.039.119-.068a.614.614 0 0 0-.132-.161l-.018-.03c-2.094-1.987-3.612-3.795-4.505-5.41-.893-1.616-1.733-3.617-2.549-5.988-.167-.495-.335-.99-.566-1.528Zm-3.6-25.785a5.019 5.019 0 0 1-.102-.928c.029-.293.074-.556.158-.684.025-.093.097-.174.198-.272.072-.081.127-.191.211-.319a.802.802 0 0 0 .083-.403c.02-.17-.006-.352-.02-.581-.043-.211-.04-.411-.095-.576-.01-.152-.031-.258-.031-.258l-.186-.801.089-.051c.046.013.106-.022.182-.026a.493.493 0 0 1 .212-.044c.076-.004.169.021.246.016.14.038.238.139.319.211.08.072.132.16.136.237.005.076-.084.127-.237.136-.059.035-.118.069-.101.098-.012.047.022.106.039.136.004.076.022.106.009.152.009.153-.011.323-.032.492l-.085.878c-.045.263-.108.497-.222.641-.084.128-.121.268-.159.408-.037.14-.045.263-.036.416-.008.123-.016.246-.012.322a.353.353 0 0 0 .039.136s-.012.046-.02.169c-.008.123.001.276-.002.475-.004.199-.007.399-.027.568-.004.2-.007.399-.015.522a1.265 1.265 0 0 1-.046.263l-.037.14c-.03.017-.042.064-.055.11-.012.047-.037.14-.045.263s.001.276-.002.475c-.029.293.003.827.045 1.514.028.733.104 1.479.137 2.288.063.793.104 1.479.141 2.09.049.563.067.869.067.869s-.022-.106-.112-.331c-.06-.241-.137-.512-.249-.842-.065-.318-.16-.618-.208-.907-.048-.288-.074-.47-.066-.593.038-.14.019-.445-.008-.903.002-.475-.043-.962-.062-1.543-.045-.487-.055-.915-.066-1.343a4.52 4.52 0 0 1-.008-.903 2.857 2.857 0 0 1 .065-.709c.02-.169.041-.339.032-.491a7.257 7.257 0 0 0-.062-.517Zm-.377 32.501c.03-.017.042-.063.067-.157.067-.157.135-.314.244-.535.109-.221.206-.395.303-.569.096-.175.168-.256.244-.26.111.054.132.16.112.33.009.153-.041.339-.091.526-.05.187-.117.344-.172.454.017.03-.012.047-.025.094-.037.14-.104.297-.179.577a12.15 12.15 0 0 1-.603 1.69c-.256.582-.543.906-.861.971.053-.386.174-.93.396-1.571.205-.67.389-1.172.565-1.55Zm1.299-21.47c-.14-.038-.221-.109-.259-.245-.009-.152-.019-.305.031-.492.021-.169.088-.327.113-.42.03-.017.064.042.115.131.051.089.073.195.112.33.039.136.031.259.023.382a.53.53 0 0 1-.135.314Zm3.933-22.241c-.385.222-.614.236-.699.088-.103-.178.024-.369.409-.591.355-.205.613-.236.716-.059.085.148-.071.357-.426.562Zm5.737 9.594-.253-2.42c-.088-.699-.243-1.241-.465-1.626-.308-.533-.428-1.015-.409-1.461.05-.186.006-.398-.147-.664a3.774 3.774 0 0 1-.306-1.008 1.806 1.806 0 0 0-.245-.766l-.085-.148c-.451-.371-.728-.646-.865-.883l-.227-.461-.073-.194a.428.428 0 0 0-.272-.198c-.14-.038-.263-.046-.403-.083-.258.03-.416-.037-.501-.185l-.103-.177.131-.115.284-.125c.419-.163.75.001 1.024.475l.359.622c.153.266.337.515.533.718.196.202.409.435.545.672l.176.372c.09.224.175.372.227.461.051.089.068.118.055.165.052 1.115.312 2.385.763 3.782.176.373.241.69.242.966.028.458.035 1.085.021 1.882l-.006.399Zm6.721 33.653c2.714-1.725 4.141-5.746 4.33-12.051 0-2.803-.506-5.115-1.532-6.891-.735-1.273-1.862-2.201-3.412-2.766-1.838-.518-3.423-.392-4.755.377-.977.564-1.825 1.488-2.527 2.801-.013.047-.055.111-.08.204-.055.11-.164.331-.34.71-.072.08-.114.144-.173.178l-.061-.241c-.033-.81.007-1.425.056-1.887.065-.433.258-1.057.564-1.825 1.942-5.66 2.437-11.432 1.457-17.3l-.221-1.135c-.153-1.017-.441-1.995-.924-2.9a11.652 11.652 0 0 0-1.323-1.881c-.698-.662-1.437-.985-2.23-.922-.792.062-1.44.239-1.943.53-1.303.752-1.983 2.171-2.071 4.274-.069 1.658-.041 3.142.117 4.51l.251 2.895c.161 1.919.334 3.793.525 5.695.083.623.142 1.339.209 2.208.104 1.479.285 2.954.495 4.411l.044.488c.127.834.319 1.986.617 3.393.33 1.664.689 3.312 1.078 4.942l.156.818c.223 1.411.545 2.448.938 3.129.428.74 1.061 1.085 1.905 1.11 1.144-.068 2.004-.288 2.566-.613.829-.479 1.231-1.697 1.129-3.651l.041-1.09c.14-2.014.716-3.886 1.748-5.587.336-.51.712-.885 1.097-1.107.313-.141.615.04.905.543.496.858.756 2.129.751 3.829.021 1.882-.066 3.235-.267 3.982-.291 2.024-.962 3.871-2.039 5.559-.447.731-.936 1.25-1.469 1.558-1.036.598-2.181.391-3.513-.616-.701-.463-1.126-.652-1.262-.613l-.207.119c-.385.222-.353.756.126 1.585.188.326.533.719 1.018 1.149 1.132 1.004 2.483 1.566 4.035 1.657 1.183.066 2.213-.133 3.071-.629l.545-.354c.722-.733 1.456-2.538 2.202-5.415.425-1.588.687-2.844.797-3.815.271-1.854.53-2.911.757-3.2.214 1.258.165 2.746-.17 4.558-.096.45-.162.883-.21 1.345-.16 2.184-.821 4.184-2.013 6.016l-.789.89c-.51.689-.716 1.084-.664 1.173.051.089.263.045.665-.147Zm-9.608-25.869-.051-.089c-.393-.681-.676-3.359-.867-8.064.008-1.149-.022-2.158-.136-3.039-.032-1.285.003-1.976.092-2.027.03-.017.047.012.064.042.86.806 1.416 2.932 1.699 6.36-.026.844-.101 2.15-.288 3.876-.17 1.756-.357 2.732-.513 2.941Zm.653 3.728c-.129-.36.004-.95.411-1.817l.177-.378c.201-.471.466-.901.731-1.33-.017-.03-.017-.03.013-.047.075-.28.099-.649.029-1.043l-.065-.318c-.004-.076.021-.169.016-.245-.004-.077-.009-.153.003-.2l-.037-.886c.05-.186.07-.356.091-.526.007-.123.015-.246.04-.339a.928.928 0 0 0 .046-.263l.037-.14c.03-.017.05-.187.108-.497.05-.186.105-.297.135-.314.029-.017.046.012.081.072.085.148.128.359.083.623-.126.191-.15.56-.025 1.119a.495.495 0 0 1-.024.369.813.813 0 0 0-.083.403c.014.229-.035.691-.104 1.323-.033.216-.275 1.027-.778 2.344-.486 1.346-.767 2.021-.885 2.09Zm2.725 11.214-.034-.06c-.018-.029-.014-.228-.003-.551-.017-.029-.004-.076.003-.199.025-.093.051-.187.058-.31.008-.123.033-.216.046-.263.012-.046.042-.064.042-.064l.03-.017.018.306c.014.228.01.428-.01.597-.033.217-.071.357-.113.421.005.076-.037.14-.037.14Zm.212-2.846c-.034-.059-.031-.258.022-.645.129-.666.309-1.243.557-1.702.021.106-.02.445-.14.988-.208.87-.35 1.308-.439 1.359Zm18.768 1.951c.296-.171.482-.396.633-.681.45-.93.674-2.046.655-3.377-.042-.962.043-1.84.255-2.634.143-.437.196-.824.178-1.129-.031-.258-.062-.517-.118-.682-.056-.165-.065-.317-.01-.428.811 1.268 1.633 2.214 2.514 2.851.851.653 2.107.914 3.738.801.911-.131 1.665-.329 2.287-.688 1.243-.718 2.075-2.422 2.495-5.112l.385-1.998c.364-2.105.461-3.305.307-3.571-.034-.059-.098-.101-.157-.067-.161.132-.424 1.112-.789 2.941l-.493 2.495a10.471 10.471 0 0 1-1.583 3.479c2.151-7.28 2.911-12.731 2.187-16.378l-.06-.241-.047-.013c-.059.034-.092.251-.099.649-.083 1.429-.151 2.337-.182 2.829-.049.462-.107.772-.191.899-.071-.669-.105-1.479-.13-2.411-.014-2.281-.195-3.756-.554-4.377-.034-.059-.08-.072-.097-.102-.018-.029-.035-.059-.064-.042l-.07.632a29.415 29.415 0 0 0-.414 4.068c-.429 4.589-1.294 8.285-2.626 11.106-.285.599-.592 1.093-.956 1.421-.592.341-1.076.187-1.452-.465-.376-.651-.655-1.476-.854-2.506-.191-.876-.287-1.452-.322-1.787-.017-1.056.013-2.849.167-5.385-.004-.827-.112-1.356-.283-1.652-.257-.444-.661-.803-1.243-1.059-1.041-.504-1.931-.542-2.701-.098-.562.325-.92 1.005-1.013 2.006-.005.674-.118 1.094-.384 1.248-.148.085-.407.116-.729.105-.081-.072-.45-.096-1.052-.182-.831-.073-1.585.126-2.325.553-.888.513-1.541 1.363-2.019 2.586-.147.361-.306.769-.466 1.177-.159.408-.264.705-.36.879-.08.204-.16.408-.21.594-.062.234-.053.387.015.505.052.089.02.581-.099 1.399-.257 1.333.023 3.46.829 6.428.32 1.237.77 2.358 1.334 3.335.789 1.162 1.844 1.895 3.139 2.292 1.391.223 2.413.146 3.034-.213Zm11.8-18.731c-.029.017-.046-.013-.064-.043a.637.637 0 0 1-.052-.364c.011-.322.049-.462.108-.496.03-.018.03-.018.064.042.034.059.06.241.061.517-.062.233-.087.326-.117.344Zm-6.248 9.685-.442-.218-.171-.296c-.051-.089-.039-.136.05-.187l.059-.034c.17.02.315.134.434.341.12.207.159.343.07.394Zm-6.857 4.393-.237.137c-.237.136-.526-.091-.885-.713-.581-1.006-.934-2.302-1.073-3.84-.112-1.356.01-2.65.288-3.876.213-.794.477-1.499.826-2.056.35-.557.666-.898.992-1.086.207-.119.33-.111.416.037.051.089.159.618.295 1.605.237 1.915.315 3.212.216 3.861l-.023.369c-.027 1.595-.139 3.041-.401 4.297-.153.759-.283 1.15-.414 1.265Zm5.927-5.593c-.088.051-.255-.168-.511-.612l-.466-.876c-.12-.207-.222-.385-.337-.516a1.912 1.912 0 0 1-.235-.338c-.171-.296-.155-.542.077-.755.059-.034.08-.204.015-.521-.079-.547-.043-.962.075-1.306.042-.064.045-.263.014-.522a4.092 4.092 0 0 1-.021-.856c.05-.187.079-.48.09-.802-.026-.182-.087-.423-.147-.665-.06-.241-.057-.44-.054-.64l.218-.717.233.062c.11.055.221.11.255.169.051.089.018.305-.035.691-.144.912-.189 2.201-.089 3.88.086 1.174.234 2.114.492 2.834.394.956.545 1.422.426 1.49Zm5.378 3.368a.73.73 0 0 1-.406.116c-.093-.025-.157-.067-.174-.097l-.035-.059c-.034-.059.038-.14.152-.285.207-.119.377-.099.496.108.022.106-.02.17-.033.217Zm-14.309-1.132c-.046-.013-.093-.025-.127-.084-.171-.296-.234-1.089-.253-2.42-.02-1.607.167-2.583.5-2.893l.03-.018c.034.06.015.505-.041 1.366-.076 1.781-.101 2.9-.049 3.264.04.411.024.657-.06.785Zm16.725-14.234c-.016-.78-.016-.78 0 0Zm9.682 10.275c.25-.183.469-.349.672-.545a10.52 10.52 0 0 0 1.008-2.082c.222-.641.508-1.24.828-1.78.302-.57.491-.994.566-1.275.088-.326.104-.572.107-.772-.014-.228.032-.492.166-.806.495-1.193.872-2.319 1.053-3.371.146-.636.351-1.307.538-2.007-.017-.03.033-.217.15-.561.088-.327.23-.764.355-1.231a28.5 28.5 0 0 0 .359-1.43c.112-.42.141-.713.148-.836-.009-.152-.013-.229-.03-.258-.017-.03-.064-.042-.094-.025-.219.166-.45.655-.735 1.529-.217.718-.459 1.528-.727 2.433-.863 3.221-1.496 4.928-1.893 5.197-.029.017-.076.005-.093-.025-.017-.029-.009-.152.011-.322a36.953 36.953 0 0 1 1.573-5.684c.62-1.66.988-2.938 1.183-3.761.117-.344.167-.531.116-.62-.005-.076-.107-.254-.295-.579-.168-.496-.089-.975.206-1.421.277-.476.399-.744.348-.833-.017-.03-.081-.072-.204-.08a.71.71 0 0 1-.199-.003c-.094-.025-.14-.037-.158-.067-.136-.237-.201-.555-.148-.941l.015-.521c-.009-.153-.019-.305-.087-.424-.034-.059-.127-.084-.187-.05-.101.098-.227.29-.349.557-.286.599-.432.96-.453 1.13-.731 2.356-1.216 3.978-1.5 4.852a83.454 83.454 0 0 1-4.234 9.825c-.526.935-1.129 1.599-1.835 2.086-.516.337-1.003.382-1.445.163-.132-.16-.247-.291-.333-.439-.119-.208-.218-.584-.356-1.097-.295-1.33-.516-2.465-.605-3.44-.089-.974.024-2.145.353-3.558.565-1.55 1.659-2.458 3.248-2.783.523-.46.729-.855.66-1.249-.07-.394-.113-.606-.164-.695a3.367 3.367 0 0 0-1.286-1.27c-.749-.476-1.419-.681-2.042-.597-.666-.129-1.437.04-2.389.511-.905.483-1.707 1.419-2.37 2.867-.512 1.164-.786 2.467-.792 3.892-.026 2.895.297 4.959.875 6.164.624 1.218.988 1.916 1.073 2.064 1.162 2.013 2.942 3.591 5.363 4.64 1.422.481 2.791.322 4.029-.472Zm-.518-1.24c-.212.044-.288.048-.305.019-.017-.03.012-.047.084-.128.161-.132.228-.289.189-.425-.009-.152-.014-.228.045-.263.435-.409.931-1.326 1.489-2.753l.582-1.521c.227-.565.42-.913.568-.999.119-.068.212-.043.28.075.171.296-.18 1.328-1.088 3.037-.782 1.517-1.397 2.503-1.844 2.958Zm11.935-1.681c.165-.055-.19-.876-1.049-2.433a16.399 16.399 0 0 1-1.292-3.398l-.3-.932c-.284-.901-.376-1.401-.304-1.482l.131-.115c.148-.086.704-.012 1.638.238 1.54.413 3.123.762 4.825 1.043 2.197.389 3.99.143 5.44-.694.71-.41 1.373-1.108 1.911-2.09l.913-1.632c.273-.552.378-.85.326-.938-.017-.03-.046-.013-.106.021-.296.171-.57.448-.835.877-.399.744-1.215 1.451-2.369 2.118-.237.137-.402.192-.419.163-.005-.076.122-.268.409-.591l1.236-1.346c1.18-1.51 1.981-3.472 2.373-5.869.392-2.397.628-4.586.721-6.613-.006-.352.035-.691.076-1.03.177-1.129.173-2.231-.091-3.302a4.872 4.872 0 0 1-.184-1.276c.113-.42.073-.831-.132-1.186-.051-.089-.115-.131-.174-.097-.148.086-.369 1.002-.679 2.721l-.502 2.618c-1.11 5.732-2.297 9.693-3.618 11.916a5.147 5.147 0 0 1-1.242.993c-1.066.616-2.23.854-3.524.733-1.365-.041-2.159-.254-2.398-.668-.205-.355-.131-.911.175-1.68l.876-2.242c.666-1.648 1.146-2.595 1.442-2.766l.076-.005c.017.03.017.03.004.076a.913.913 0 0 1-.079.204l.227-.289c-.058.31-.133.59-.225.84a172.18 172.18 0 0 0-.839 2.853c.517-.062 1.08-1.137 1.736-3.213.657-2.076 1.023-3.629 1.158-4.694l.074-.556a14.31 14.31 0 0 0 .179-1.603c.045-.539-.187-1.076-.677-1.582a3.309 3.309 0 0 0-1.75-.845c-.416-.036-.733.029-.97.166-.267.153-.511.413-.734.779-.303.569-.716 2.11-1.256 4.592-.456 2.355-1.348 4.844-2.676 7.465-.499 1.118-.95 1.773-1.305 1.978-.119.068-.165.055-.217-.033-.136-.237-.164-.695-.065-1.344.103-.573.115-.895.064-.984-.052-.089-.158-.067-.352.006-.03.017-.06.034-.077.005l.338-.235c.368-.252.495-.443.473-.549-.051-.089-.068-.119-.039-.136 0 0 .064.043.174.097.081.072.158.067.246.016.089-.051.102-.098.033-.216a.3.3 0 0 0-.115-.131c-.034-.059-.081-.072-.115-.131-.171-.296-.066-1.619.301-3.923.243-1.561.375-2.427.395-2.596.071-.357.141-.713.271-1.104.117-.344.141-.713.059-1.06-.095-.301-.092-.5.086-.602.186-.226.331-.863.449-1.957.054-.386.023-.644-.063-.792-.085-.148-.06-.242.088-.327.185-.226.289-.798.327-1.689a3.956 3.956 0 0 0-.047-1.038c-.048-.289-.027-.458.074-.556.118-.068.161-.132.126-.191-.017-.03-.063-.043-.11-.055-.064-.042-.128-.084-.162-.144-.068-.118-.014-.228.105-.297a.516.516 0 0 1 .195-.073c.093.025.123.008.182-.026.089-.051.114-.145.028-.293-.056-.165-.066-.593.033-1.242.052-.662.099-1.399.113-2.197-.016-.78.032-1.242.087-1.352.089-.052.079-.48.045-1.29-.063-.792-.07-1.42-.004-1.852.054-.386.052-.662.001-.75l-.017-.03c-.068-.118-.043-.212.088-.327.067-.157.075-.28.006-.398l-.034-.06c-.102-.177-.094-.3-.006-.351.089-.052.08-.204-.015-.505-.073-.195-.122-.758-.177-1.674-.007-.627-.051-1.114-.21-1.457a1.485 1.485 0 0 1-.069-.394 1.375 1.375 0 0 0-.199-.754c-.273-.473-.712-.891-1.269-1.24-.301-.181-.497-.384-.583-.532a.961.961 0 0 0-.374-.376c-1.139-.605-2.301-.566-3.455.1-.563.325-1.047.92-1.489 1.728-.955 1.696-1.378 2.809-1.299 3.355.102.178.103.453-.009.874a1.24 1.24 0 0 1-.147.36c-.215.243-.391 1.647-.516 4.166a27.189 27.189 0 0 0 .079 4.375c.051 2.891.158 4.921.29 6.108l.286 2.203c.112 1.356.754 5.682 1.897 12.994.115.882.147 1.416.126 1.585a.654.654 0 0 0 .074.47l.035.06c.068.118.15.465.297 1.13.066.594.136.988.256 1.195l.08.071c.069.119.078.271.104.454.218 1.334.589 2.659 1.065 3.963.15.466.331.914.553 1.299.41.711.887 1.264 1.368 1.618a10.65 10.65 0 0 0 2.355 1.482c.896.39 1.44.51 1.706.357l.059-.035Zm-2.771-46.431c-.052-.089-.108-.254-.138-.513a.26.26 0 0 1-.027-.182l.025-.093-.017-.03.111.055c.085.148.094.3.103.453.01.153-.015.246-.057.31Zm-3.29 18.16-.03.017c-.059.034-.123-.008-.191-.127-.068-.118-.095-.3-.079-.546.08-.204.071-.357-.015-.505-.102-.177-.184-.524-.233-1.088-.011-.428-.088-.699-.157-.818l-.051-.088c-.068-.119-.041-.687.081-1.705.062-.509.061-.785.026-.844-.119-.207-.08-1.848.097-5.028.062-1.26.291-3.05.671-5.4.275-1.027.531-1.61.798-1.763.059-.034.105-.022.123.008.102.177.172.571.179 1.199l-.015.521c.017.03.017.03-.012.047-.029 2.069-.012 3.125.022 3.184.086.148.095.3.045.487s-.186 2.002-.396 5.399c-.06.784-.083 1.429-.085 1.904a38.709 38.709 0 0 1-.343 2.96c-.18 1.328-.351 2.058-.435 2.186Zm-2.919-9.09c-.059.035-.106.022-.14-.037-.017-.03-.034-.06-.022-.106l.038-.14c.012-.047-.005-.076.025-.093.029-.018.093.025.144.113.069.119.044.212-.045.263Zm.007 4.456c-.03.017-.076.005-.11-.055-.073-.194-.132-.91-.129-2.136-.014-1.254.026-1.87.115-1.92.029-.018.029-.018.046.012.035.059.073.195.117.406-.004.2.052.365.091.5.039.136.06.242.077.271.035.059.028.458-.003 1.225-.03.768-.079 1.23-.099 1.4-.021.17-.075.28-.105.297Zm.198 3.556c-.029.017-.029.017-.047-.012-.119-.208-.139-.788-.105-1.755.024-.369.044-.539.074-.556l.017.03c.103.177.156.817.144 1.89.014.229-.024.369-.083.403Zm1.147.483c-.03.017-.076.004-.111-.055l-.038-.136c-.056-.165-.112-.33-.18-.448-.069-.118-.073-.195.016-.246.088-.051.186.05.306.257.051.089.102.178.124.284.022.106-.02.169-.033.216-.042.064-.054.111-.084.128Zm.139.788-.089.051c-.088.051-.135.039-.246-.016-.068-.118-.013-.229.135-.314.148-.086.254-.107.305-.019.068.119.043.212-.105.298Zm-.842 1.275-.03.017c-.059.034-.093-.025-.191-.126-.222-.385-.268-1.148-.15-2.242l.047.012c.017.03.021.106.056.165.004.077.073.195.145.39.121.483.208.906.167 1.246.006.351-.015.521-.044.538Zm.901.467c-.03.017-.077.004-.145-.114-.171-.296-.167-.495-.019-.581.029-.017.076-.004.093.025.017.03.051.089.073.195.022.106-.003.199.018.305.022.106.009.153-.02.17Zm-.644 1.003-.06.034c-.177.103-.3.095-.415-.036-.086-.148-.048-.288.1-.374.237-.136.406-.116.509.062.051.089.026.182-.134.314Zm3.583 6.89c-.03.017-.076.005-.111-.054-.119-.208-.172-.572-.174-1.123.003-.199.024-.369.095-.45.072-.081.234-.963.485-2.647.172-1.205.486-3.123.953-5.8.359-2.181.639-4.158.762-5.926.077-.755.067-1.183.045-1.289-.068-.118-.045-.763.051-1.963.096-1.2.127-1.968.121-2.32a8.26 8.26 0 0 1-.009-1.178c.019-.445-.012-.704-.046-.763l-.034-.06c-.069-.118-.073-.194-.002-.275.089-.051.138-.514.117-1.37l-.088-1.725c-.079-.547-.097-.852.051-.937l.076-.005c.14.038.268.122.302.181.068.119.048.288-.015.522-.062.233-.07.356-.036.415.232.538.362 1.173.407 1.936.023.382-.005.674-.068.908-.118.068-.112.42-.029 1.043.113.605.14 1.063.053 1.39-.125 1.493-.168 2.307-.1 2.425l.231.262c.034.06.004.077-.026.094l-.118.068c-.118.068-.168.255-.12.543.065.318.061.517-.023.645-.03.017-.03.017-.013.046.052.089.116.131.239.139.14.038.203.08.22.109l.018.03-.06.034-.266.154c-.207.12-.317.341-.281.675.016.78-.154 2.536-.57 5.302-.16 1.158-.2 1.773-.149 1.862.052.089.027.182-.058.31-.148.085-.273.552-.387 1.447-.162.883-.176 1.404-.074 1.582.051.089-.003.199-.147.361-.16.132-.356.955-.633 2.457-.314 1.918-.5 2.894-.589 2.945Zm-3.069-3.674c-.059.034-.106.021-.157-.068l-.068-.118c-.005-.076-.039-.135-.044-.212.013-.046-.004-.076.025-.093.06-.034.14.037.226.185.085.148.107.254.018.306Zm4.098 16.736c-.03.017-.123-.008-.204-.08-.137-.237-.236-.613-.344-1.143-.091-.5-.195-.953-.354-1.296-.153-.266-.335-.99-.56-2.202l-.231-1.287c-.135-.712-.234-1.089-.268-1.148-.085-.148-.112-.33-.066-.593.062-.234.13-.391.189-.425.029-.017.127.084.247.291.171.296.253.644.293 1.055.01.428.024.657.041.686.107.254.172.572.237.889.027.183.065.318.104.454l.005.076c.043.212.133.436.253.643l.2.279c.051.089.086.148.056.165-.03.017-.059.034-.042.064-.097.174-.066.433.046.763.085.148.128.36.159.618.022.106.056.165.078.271.004.076.056.165.107.254l.085.148.078.271c-.114.145-.088.327-.044.539.01.428-.006.674-.065.708Zm16.427-19.193c-.046-.013-.063-.043-.098-.102l-.09-.224c-.06-.241-.04-.411.049-.462.03-.017.03-.017.077-.005.017.03.08.072.097.101a.567.567 0 0 1 .058.441c-.038.14-.063.233-.093.251Zm-.341-4.421c-.03.017-.047-.012-.064-.042a.546.546 0 0 1-.048-.288c.051.089.102.178.09.224l.022.106Zm.23 15.575c.118-.068.27-.353.454-.854.18-.577.233-.963.131-1.141-.069-.118-.179-.173-.327-.088-.178.103-.312.417-.403.943-.138.514-.132.866-.012 1.073.051.089.098.101.157.067Zm.593-2.118c.148-.085.268-.629.314-1.642.026-.844-.006-1.378-.108-1.555-.017-.03-.034-.06-.064-.043-.047-.012-.076.005-.076.005-.089.051-.147.361-.204.946l-.072.832c-.095.725-.097 1.2.006 1.377.051.089.115.131.204.08Z" fill="#535353"/><path d="M796.84 74.09a54.588 54.588 0 0 1-.693-.654l-.127-.073c-.106-.06-.22-.155-.356-.262a2.346 2.346 0 0 1-.332-.304c-.093-.082-.111-.149-.075-.212.058-.052.049-.085-.014-.122-.064-.036-.139-.052-.257-.092s-.269-.07-.417-.156a.943.943 0 0 1-.408-.32c-.06-.09-.208-.176-.377-.274a2.513 2.513 0 0 1-.695-.457c-.093-.082-.165-.152-.25-.201-.063-.037-.115-.095-.169-.098a1.614 1.614 0 0 1-.263-.18c-.114-.094-.247-.255-.452-.486a2.37 2.37 0 0 0-.28-.247c-.136-.106-.263-.18-.399-.286a1.381 1.381 0 0 0-.363-.153c-.096-.028-.142.002-.115.102.015.121-.043.173-.195.142-.142.002-.314-.041-.538-.142-.202-.089-.402-.232-.622-.387-.199-.144-.341-.338-.461-.52a1.894 1.894 0 0 0-.195-.395c-.027-.1-.078-.158-.099-.17-.03-.045-.03-.045-.043-.024 0 0-.012.02-.003.054-.012.021-.015.076-.027.097.008.033-.004.055-.049.085-.013.02-.034.009-.088.005-.291-.083-.641-.257-1.031-.51-.368-.24-.603-.517-.662-.805-.048-.113-.151-.228-.295-.368a1.512 1.512 0 0 0-.462-.323c-.181-.077-.269-.071-.352.022-.082.094-.279.093-.59-.002a10.572 10.572 0 0 1-.995-.377c-.426-.19-.746-.318-.973-.365-.66-.127-1.144-.265-1.443-.382a1.24 1.24 0 0 1-.637-.508 5.359 5.359 0 0 1-.298-1.046c-.009-.034.037-.064.158-.078.13.018.273.016.415.014.163.01.306.007.448.005.109.006.155-.024.158-.078-.009-.034-.081-.104-.208-.177s-.275-.159-.456-.235l-.508-.293c-.169-.098-.241-.168-.272-.213-.262-.913-.263-1.449-.01-1.642.252-.192.612-.182 1.114.023.468.215.979.453 1.486.746l.381.22c1.26.699 2.532 1.377 3.816 2.034l.084.048c.106.061.224.101.351.175.139.052.266.125.405.177.139.052.223.1.278.104.003-.054-.024-.154-.132-.358a6.804 6.804 0 0 0-.375-.668c-.779-1.239-1.238-2.349-1.43-3.334-.205-.964-.066-2.18.392-3.608.352-.952.731-1.804 1.189-2.499a28.05 28.05 0 0 1 1.587-2.213c.082-.093.131-.178.201-.25-1.092-2.21-1.641-4.19-1.678-5.93-.059-1.754.561-3.708 1.81-5.919l.036-.063c.248-.478.559-.918.933-1.322.045-.03.103-.082.173-.154a.658.658 0 0 0 .131-.178 9.465 9.465 0 0 1 1.876-1.736c.207-.163.426-.346.632-.51a9.713 9.713 0 0 1 1.737-1.054 13.736 13.736 0 0 0 1.543-.914c.045-.03.124-.07.194-.142.091-.06.182-.12.295-.168a.413.413 0 0 1 .2-.053c.054.003.23-.008.53-.089.3-.08.646-.19 1.058-.32l.234-.062c.245-.083.512-.155.767-.205.288-.06.539-.055.778-.03.042.024.076.015.109.006a.43.43 0 0 0 .146-.056c.079-.04.191-.087.337-.144.133-.036.363-.044.636-.028.293.029.59.003.899-.044a7.61 7.61 0 0 1 .879-.057c5.55.104 10.162 2.174 13.865 6.258.286.334.521.61.726.842.193.252.317.38.338.392.033-.01.144.14.346.425.181.274.4.626.662 1.003.331.5.634 1.099.955 1.763.288.674.524 1.29.709 1.848.173.579.238.955.204 1.16-.049.085-.05.282-.036.6.014.318.037.67.068 1.054.044.363.054.736.068 1.054.002.34-.011.557-.051.675-.04.118-.059.248-.09.4.003.142-.016.272.011.372.013.318-.025.775-.094 1.383a8.82 8.82 0 0 1-.42 1.703c-.175.548-.416.916-.698 1.063-.17.1-.252.193-.271.323-.019.13.017.264.041.418a.943.943 0 0 1 .021.548c-.034.206-.232.402-.593.588-.282.147-.455.3-.511.495a1.778 1.778 0 0 0-.054.532c.015.121.008.23.002.34a.702.702 0 0 1-.159.274l-.058.052a8.922 8.922 0 0 0-.234.259.812.812 0 0 0-.171.296c-.015.076-.085.148-.167.241a.969.969 0 0 1-.286.202c-.112.048-.228.15-.368.295-.118.157-.237.314-.302.474-.097.17-.195.338-.301.474-.107.136-.177.209-.256.248-.058.05-.103.08-.14.144a.133.133 0 0 0 .003.142c-.004.055-.016.076-.062.106-.045.03-.1.027-.209.02-.142.003-.263.017-.345.111a1.782 1.782 0 0 0-.28.29c-.095.114-.177.208-.283.344-.371.35-.879.789-1.544 1.307-.666.518-1.243.833-1.719.925-.109-.007-.175.011-.233.062-.058.052-.052.14.008.23.06.092.208.177.432.278.181.077.384.165.577.22.611.212.949.408 1.048.578.048.112-.009.163-.164.187-.154.023-.381-.023-.629-.082-.27-.07-.557-.208-.844-.346-.405-.177-.816-.246-1.225-.172a5.357 5.357 0 0 0-1.186.443c-.104.081-.149.111-.119.157a.446.446 0 0 0 .215.068c.096.027.181.076.244.113.085.049.115.094.087.19-.012.022-.057.052-.133.037-.088.005-.185-.022-.294-.029-.193-.055-.432-.08-.726-.11-.272-.016-.56.044-.885.166-.382.174-.707.297-.953.38-.224.097-.558.186-.958.293a1.895 1.895 0 0 0-.349.165.392.392 0 0 0-.161.133.394.394 0 0 1-.17.1 1.056 1.056 0 0 1-.272-.017c-.303-.062-.512-.042-.691.024a2.331 2.331 0 0 0-.398.25.602.602 0 0 1-.194.14c-.046.031-.1.028-.176.012-.139-.052-.39-.056-.754-.012-.342.056-.739.109-1.169.17-.619.094-1.116.174-1.488.184a.532.532 0 0 1-.142.003c-.109-.007-.252-.004-.394-.002a2.242 2.242 0 0 0-.373.01.556.556 0 0 0-.245.084c-.3.08-.64.082-1.072.001a4.428 4.428 0 0 0-1.136-.035 4.232 4.232 0 0 1-.515.013c-.163-.01-.272-.016-.393-.002-.1.027-.179.066-.216.13l-.042-.025c-.021-.012-.042-.024-.097-.028a.676.676 0 0 0-.202-.088.718.718 0 0 0-.215-.068c-.357-.065-.693-.118-.996-.18a15.162 15.162 0 0 1-2.096-.421c-.463-.126-.714-.13-.763-.046-.016.076.096.225.334.447.25.2.522.414.857.664.326.216.61.408.851.576.191.11.284.192.348.228.793.628 1.846 1.49 3.189 2.631a46.813 46.813 0 0 1 3.724 3.56c1.151 1.228 1.897 2.28 2.184 3.15.09.333.127.806.133 1.43a16.34 16.34 0 0 1-.087 1.81 5.589 5.589 0 0 1-.312 1.37c-.054-.003-.102-.115-.177-.327-.108-.204-.192-.45-.305-.74-.084-.246-.18-.47-.255-.683a3.337 3.337 0 0 0-.234-.474c-.267-.464-.589-.932-.92-1.433a18.27 18.27 0 0 1-.863-1.288 18.62 18.62 0 0 0-2.89-3.247c-.229-.189-.446-.398-.664-.608Zm5.626 5.588c-.018-.066-.057-.145-.111-.148a.223.223 0 0 0-.185-.022c-.054-.004-.079.039-.082.093.009.033.06.091.166.152.106.061.172.043.212-.075Zm-.854-.718c.182.077.249.059.234-.063-.015-.12-.093-.279-.234-.473a5.04 5.04 0 0 0-.476-.641 2.977 2.977 0 0 0-.452-.487c-.157-.118-.232-.134-.269-.07-.003.054.045.166.144.336.099.17.253.344.394.538.151.228.304.401.437.562.111.15.192.252.222.298Zm-4.539-5.468c.302.259.522.414.628.475.106.061.118.04.067-.018-.039-.079-.142-.194-.286-.334a4.35 4.35 0 0 0-.486-.478c-.187-.164-.353-.316-.51-.435-.157-.119-.283-.192-.371-.186.009.033.06.09.141.194.081.104.217.21.341.338.114.094.238.222.332.304.072.07.123.128.144.14Zm-7.683-4.661c.154.173.26.234.326.216.076.016.113-.048.086-.148a.393.393 0 0 0-.105-.258.388.388 0 0 0-.312-.095c-.054-.003-.066.018-.078.039a.322.322 0 0 0 .014.121.186.186 0 0 0 .06.091c-.012.022.009.034.009.034Zm-1.524-1.218c-.054-.004-.087.005-.066.017.009.034.03.046.093.083.043.024.106.06.16.064.064.037.118.04.173.043.021.012.054.003.045-.03 0 0-.03-.046-.135-.107-.085-.048-.17-.097-.27-.07Zm11.29-.756c.033-.009.067-.017.109.007.076.015.13.019.227.046.181.077.42.102.638.115.482-.004 1.297-.097 2.433-.258a37.317 37.317 0 0 0 3.298-.634c1.067-.286 1.753-.595 2.036-.939-.396-.144-.823-.136-1.278-.032-.455.103-.934.25-1.416.45-.728.285-1.395.464-2.043.512a5.693 5.693 0 0 0-.628.061c-.275.038-.551.076-.893.132-.531.089-.961.15-1.325.194-.945.075-1.769.135-2.468.126-.691.024-1.52-.004-2.468-.072a1.227 1.227 0 0 0-.418.04c-.121.015-.221.042-.246.084-.024.043.006.088.124.128.097.028.324.074.638.115.055.003.109.006.185.022.566.045 1.165.08 1.798.108a5.012 5.012 0 0 0 1.697-.205Zm3.367-3.243c.066-.018.188-.032.33-.035.13.019.251.004.372-.01.122-.015.179-.066.183-.12-.006-.088-.121-.183-.341-.338-.042-.025-.085-.05-.115-.095l-.232-.134c-.051-.058-.094-.082-.115-.094-.03-.046-.072-.07-.102-.116-.061-.091-.214-.264-.504-.544a1.22 1.22 0 0 0-.419-.299 2.854 2.854 0 0 0-.484-.138 2.153 2.153 0 0 1-.481-.193c-.105-.061-.153-.173-.144-.337.05-.281-.004-.481-.148-.621a2.24 2.24 0 0 0-.601-.376c-.106-.06-.224-.1-.33-.162-.063-.036-.178-.13-.368-.24-.19-.11-.389-.253-.601-.376-.157-.118-.326-.216-.441-.31l-.211-.122c-.109-.007-.167.044-.186.174-.006.11.008.23.032.385.006.088.011.176.008.23.006.088-.028.097-.082.094a2.337 2.337 0 0 1-.302-.259c-.132-.161-.316-.38-.581-.702-.009-.033-.009-.033-.03-.046-.151-.227-.368-.437-.594-.68a1.268 1.268 0 0 0-.776-.364c.051.057.111.148.205.23.102.116.204.232.328.36.103.115.205.23.277.3.082.104.154.174.163.207.03.046-.003.055-.088.006-.097-.028-.245-.113-.486-.28-.504-.348-.914-.81-1.142-1.393-.117-.237-.237-.419-.336-.589-.112-.149-.226-.243-.281-.246a.34.34 0 0 1-.19-.11c-.064-.037-.103-.116-.12-.182a1.162 1.162 0 0 0-.359-.405c-.169-.097-.308-.15-.417-.156-.142.002-.188.032-.161.132-.007.11.159.262.418.496.136.106.251.2.353.316.094.082.154.174.151.228.009.033-.046.03-.152-.03-.093-.083-.262-.18-.428-.333a2.888 2.888 0 0 1-.398-.483 3.26 3.26 0 0 0-.376-.471.834.834 0 0 0-.423-.244c-.076-.016-.154.023-.224.096a1.95 1.95 0 0 0-.15.308c-.064.16-.129.32-.239.51a2.2 2.2 0 0 1-.477.486c-.305.332-.509.637-.613.915-.064.16-.125.266-.195.338-.061.106-.161.133-.27.126-.143.002-.274.18-.402.5-.129.321-.249.675-.314 1.032-.077.378-.094.65-.037.796.027.1.054.2.056.343-.016.272.095.618.265 1.055.204.428.711.918 1.487 1.478l.634.366c2.031.779 3.947 1.123 5.746 1.034 1.778-.1 3.623-.416 5.458-.908Zm-2.639-2.51a1.308 1.308 0 0 1-.616-.3 1.497 1.497 0 0 1-.364-.492c-.057-.145-.009-.23.113-.244.154-.024.399.09.788.342.127.073.242.168.335.25.115.094.142.194.126.27-.006.109-.139.145-.382.174Zm-1.76-1.298c.037-.063.104-.081.167-.045.064.037.103.116.163.207.039.079.045.167.02.21-.024.041-.112.047-.239-.026a.26.26 0 0 1-.111-.149.397.397 0 0 1 0-.197Zm-4.109-2.598c-.121-.182-.169-.295-.156-.316-.009-.033.066-.018.193.055.076.016.148.086.22.156.061.091.112.149.13.215.02.21.005.285-.071.27-.076-.016-.199-.144-.316-.38Zm-3.08-1.355c.119-.157.146-.254.086-.345-.06-.091-.157-.12-.287-.138a.385.385 0 0 0-.346.11c-.103.082-.134.233-.08.433.027.1.078.158.166.153.075.015.154-.024.233-.063.091-.06.17-.1.228-.15Zm11.488 5.59c-.553-.264-.864-.359-.934-.286-.07.072.029.242.276.497.247.256.582.506.993.771.402.232.828.422 1.227.511.206.034.315.04.309-.047-.017-.067-.078-.158-.222-.298-.124-.127-.302-.258-.468-.41-.199-.144-.356-.263-.504-.348-.136-.107-.22-.155-.22-.155l-.457-.236Zm6.061 3.076c-.167.044-.228.15-.158.275.035.133.141.194.28.246.151.031.318-.014.482-.2.061-.106.065-.16-.02-.21-.072-.07-.169-.097-.299-.116a1.071 1.071 0 0 0-.285.005Zm-11.455-6.135c-.124-.128-.209-.176-.233-.134-.033.009-.049.084-.022.184.027.1.066.18.159.262.094.082.191.11.333.107a.331.331 0 0 0-.075-.212c-.03-.046-.069-.125-.12-.183l-.042-.024Zm19.858-18.332c-.675-.588-1.629-1.28-2.864-2.02-1.257-.754-2.299-1.243-3.14-1.447-.185-.022-.348-.032-.457-.038a3 3 0 0 1-.844-.15c-1.863-.68-3.776-.882-5.697-.582a6.568 6.568 0 0 0-.976.226l-.134.036c-.333.089-.697.133-1.124.14-.296.026-.572.064-.836.08-.275.039-.488.114-.624.204-.432.259-.905.493-1.421.702-.561.24-1.126.534-1.715.87-.261.16-.489.31-.737.449-.623.345-1.239.779-1.859 1.266-.07.073-.161.133-.286.202-.124.07-.224.096-.325.123-.1.026-.142.002-.139-.052-.017-.067.056-.194.187-.372.11-.19.183-.317.211-.414l.085-.148c.012-.021.079-.039.133-.036.067-.018.164.01.294.029.076.015.109.006.142-.002.034-.01.067-.018.079-.04.013-.02.025-.042.037-.063-.009-.033.015-.076.028-.097.024-.042.057-.051.124-.069a.917.917 0 0 1 .23-.008c.055.003.137-.09.244-.226.134-.233.331-.428.608-.663a9.8 9.8 0 0 1 1.175-.619c.382-.174.756-.381 1.162-.597 1.151-.577 2.221-.917 3.166-.992a9.25 9.25 0 0 0 1.94-.43c.346-.11.507-.243.513-.352-.014-.121-.095-.225-.298-.313a1.4 1.4 0 0 0-.602-.179.903.903 0 0 0-.293-.028c-.076-.016-.164-.01-.273-.017-.167.045-.258.105-.252.193-.016.076.011.176.08.3-.308-.15-.544-.23-.707-.24-.176.012-.288.06-.358.133a.41.41 0 0 0-.168.241c-.049.084-.085.148-.131.178-.045.03-.109-.006-.223-.1a2.214 2.214 0 0 1-.302-.26l-.063-.036.021.012a.538.538 0 0 0 .069.124.43.43 0 0 1 .02.21c.018.066-.019.13-.089.202a.969.969 0 0 1-.391.14 2.466 2.466 0 0 1-.657.016c-.151-.031-.29-.083-.366-.099-.042-.024-.085-.049-.097-.027-.021-.013-.033.008-.036.063.008.033.014.121.062.233l.009.034c.015.121.02.209-.025.239a.251.251 0 0 1-.188.032 3.888 3.888 0 0 1-.269-.07c-.076-.016-.173-.044-.248-.06-.055-.002-.109-.006-.134.037-.113.244-.22.38-.332.428a.63.63 0 0 1-.3.08.25.25 0 0 0-.188.033c-.067.018-.115.102-.134.233a.185.185 0 0 1-.091.06c-.046.03-.134.036-.2.053-.252-.004-.543.11-.904.296-.116.103-.198.196-.301.277a1.474 1.474 0 0 1-.359.329c-.103.081-.282.147-.449.192-.033.009-.067.018-.091.06l-.061.106a.585.585 0 0 1-.147.253c-.073.127-.231.205-.434.313-.203.108-.489.31-.86.66-.371.35-.733.732-1.098 1.17a8.597 8.597 0 0 0-.847 1.174c-.208.36-.245.62-.122.747.064.037.209-.02.37-.152.152-.166.338-.341.493-.562.177-.208.308-.386.402-.5l.049-.085c.095-.115.168-.241.22-.38.064-.16.159-.275.229-.348.091-.06.221-.041.399.09.115.094.129.215.035.33-.107.136-.247.28-.408.413-.14.145-.255.247-.362.383-.213.272-.402.501-.554.667a5.797 5.797 0 0 0-.631.848c-.18.263-.39.677-.632 1.242-.334.822-.568 1.814-.679 2.934-.111 1.12.027 2.102.392 2.933.178.328.413.408.662.27.262-.16.526-.373.785-.675.152-.166.313-.299.453-.443.562-.437 1.394-1 2.509-1.71 1.135-.697 2.27-1.197 3.383-1.513 1.134-.304 2.008-.11 2.577.614l.03.045c.135.304.182.613.151.96-.053.337-.013.755.133 1.234.123.325.11.543-.027.633-.136.09-.349.165-.658.212-.142.002-.288.06-.442.083-.889.22-1.601.429-2.12.693-.519.264-1.132.643-1.886 1.166-.261.16-.464.268-.607.27-.066.018-.145.057-.212.075-.058.051-.094.115-.143.2-.003.054-.049.084-.061.105-.021-.012-.055-.003-.088.006-.042-.025-.076-.016-.109-.007-.067.018-.091.06-.137.09-.057.051-.085.148-.158.275-.04.118-.11.19-.256.247-.124.07-.258.105-.403.162a1.19 1.19 0 0 0-.628.258c-.14.144-.135.429.06.824.445.595 1.244 1.31 2.41 2.124a61.745 61.745 0 0 0 3.59 2.326 56.563 56.563 0 0 0 3.009 1.625c.223.1.532.25.903.437.562.296 1.145.605 1.753.87.607.267 1.07.393 1.376.4 2.076-.323 4.444-1.69 7.083-4.113 2.618-2.436 4.496-5.298 5.58-8.59 1.096-3.315.374-6.41-2.188-9.298ZM801.8 34.837c.112-.048.179-.066.209-.02.03.045.027.1.011.175a.256.256 0 0 1-.119.157c-.045.03-.109-.007-.181-.077a.133.133 0 0 1-.002-.142c.024-.042.057-.051.082-.093Zm13.529 25.345a16.104 16.104 0 0 1-1.577 1.317c-.423.292-.89.614-1.367.902-.319.21-.717.46-1.172.761-.377.262-.55.416-.457.498.073.07.282.05.615-.04.334-.09.67-.233 1.023-.453a16 16 0 0 0 1.837-1.278c.505-.386 1.04-.922 1.624-1.544.034-.009.046-.03.104-.08a4.53 4.53 0 0 0 .346-.308c.128-.124.201-.25.262-.356.061-.106.022-.185-.108-.204-.109-.006-.221.042-.37.153l-.447.334c-.127.124-.243.226-.313.298Zm-25.541-12.744c.085.049.139.052.164.01a.265.265 0 0 0 .022-.185c-.027-.1-.045-.166-.087-.19-.051-.059-.097-.029-.134.035-.036.063-.061.106-.043.172.03.046.048.112.078.158Zm.962-4.547a6.602 6.602 0 0 0-.431.991c-.144.396-.255.784-.353 1.15-.09.399-.152.701-.186.907-.034.206-.004.251.069.124.012-.02.076-.18.214-.468.138-.287.266-.607.41-1.003.166-.384.285-.738.405-1.092.128-.32.175-.547.173-.69-.003-.142-.103-.115-.301.081Zm28.213 13.244c.076-.181.137-.287.128-.32-.008-.034-.042-.025-.112.047-.079.04-.161.133-.255.247l-.247.281a1.074 1.074 0 0 0-.131.178c-.033.01-.119.157-.274.378-.168.241-.381.513-.597.839-.217.326-.388.622-.567.884-.159.275-.236.457-.23.544.006.088.142-.002.419-.237.301-.277.587-.676.889-1.15l.757-1.31c-.009-.034.003-.055.016-.076l.085-.148c.046-.03.082-.094.119-.157Zm-29.211-13.566c.01-.164-.017-.264-.068-.322-.042-.024-.13-.019-.2.054-.079.039-.128.123-.155.22-.019.13.008.23.098.367.051.058.094.082.151.031.046-.03.082-.093.098-.17.037-.063.052-.138.076-.18Zm1.192-2.357c.055-.194.083-.29.062-.303 0 0-.091.06-.219.184-.35.362-.405.555-.163.526.055.004.112-.048.182-.12.049-.085.098-.17.138-.287Zm.911-1.335c-.04.118-.043.173-.034.206.009.034.042.025.067-.018.033-.009.07-.072.094-.114a.467.467 0 0 0 .056-.194c.003-.054-.006-.088-.048-.112-.034.009-.034.009-.046.03l-.049.085-.036.063c-.013.021-.004.054-.004.054Zm1.933-1.59c.295-.168.401-.304.362-.383-.005-.088-.135-.106-.323-.074-.209.02-.413.128-.607.27a1.135 1.135 0 0 0-.424.685.31.31 0 0 1-.094.115c-.067.018-.125.07-.192.087-.091.06-.17.1-.227.15-.037.064-.019.13.053.2.073.07.173.044.276-.038.115-.102.243-.226.383-.37a5.72 5.72 0 0 1 .532-.483l.261-.159Zm2.144-1.271a.534.534 0 0 0 .34-.199c.128-.123.298-.222.535-.34.798-.356 1.199-.66 1.224-.9.025-.238-.259-.234-.821.006-.349.165-.643.333-.983.532-.158.078-.295.168-.453.246-.012.021-.045.03-.045.03a2.597 2.597 0 0 0-.498.276c-.137.09-.264.214-.362.383-.012.022-.046.03-.079.04l-.1.026c-.067.018-.121.015-.188.033a.19.19 0 0 0-.14.144c-.049.085-.055.194-.032.349.012.175.096.224.242.167.136-.09.307-.19.513-.352.149-.111.298-.223.435-.313.17-.1.282-.147.412-.128Zm6.484-2.881a1.404 1.404 0 0 0-.351.022c-.197 0-.418.04-.661.07-.242.03-.463.07-.651.103-.209.02-.343.056-.397.053-.5.134-.946.271-1.35.433-.424.15-.694.275-.864.374-.17.1-.107.136.169.098.263-.017.818-.148 1.685-.38.034-.009.2-.054.455-.104.254-.05.533-.143.855-.211.312-.102.579-.173.825-.257.212-.075.315-.156.285-.201Zm1.928 1.592c.184.219.362.35.501.402.151.03.272.016.321-.068.07-.073.077-.182-.013-.319-.07-.124-.26-.234-.547-.371-.193-.056-.302-.062-.339.001-.028.097-.001.197.077.355Zm2.256.682c.076.016.121-.014.116-.102a.87.87 0 0 0-.123-.325 1.577 1.577 0 0 0-.262-.377c-.081-.103-.154-.173-.229-.188-.042-.025-.079.039-.056.193a.98.98 0 0 0 .192.45c.124.127.226.242.362.35Zm1.038-.528c-.015-.121-.096-.225-.21-.32-.127-.072-.245-.112-.363-.152-.13-.019-.197-.001-.234.062-.024.043.045.167.232.332.072.07.178.13.275.158.106.061.206.034.3-.08Zm1.248.523c-.232-.134-.392-.198-.468-.214-.076-.015-.1.027-.061.106.039.079.111.149.193.252.114.094.208.177.301.259.073.07.148.085.182.076.079-.039.127-.123.079-.236-.026-.1-.12-.182-.226-.243Zm1.33.627c-.067.018-.1.027-.079.039.009.033.03.045.094.082.042.024.105.061.16.064a.35.35 0 0 0 .172.044c.034-.01.055.003.046-.03.012-.022-.051-.058-.124-.128a.49.49 0 0 0-.269-.071Zm-19.147 33.994c.091-.06.179-.066.318-.014.13.02.236.08.341.141.073.07.124.128.099.17-.015.076-.124.07-.363.044a.584.584 0 0 1-.291-.083.214.214 0 0 1-.104-.258Zm24.85 2.564c.338.195.768.33 1.321.396 1.548-.093 2.955-.38 4.232-.883.795-.303 1.295-.437 1.437-.439-.126.463-.256.98-.367 1.564l-.028.097c-.12 1.086.143 1.999.83 2.762.789.146 1.847.023 3.13-.392a9.832 9.832 0 0 1 1.345-.181c.56-.043 1.291-.186 2.203-.448.379-.12.65-.245.844-.387-.408-.123-.826-.082-1.254.122-.316.156-.67.233-1.052.21a6.672 6.672 0 0 0-1.226.025c-.431.062-.77.063-.988.05.14-.145.898-.384 2.241-.708 1.761-.364 2.792-.587 3.071-.68.288-.059.837-.277 1.701-.652.741-.306 1.147-.522 1.221-.649.024-.042.036-.063-.006-.088-.085-.048-.236-.08-.445-.06-.188.033-.418.041-.666-.017.24-.172.643-.334 1.223-.506a8.38 8.38 0 0 0 1.787-.801l-.021-.012c-.233-.135-.751-.067-1.534.214-.851.157-1.715.334-2.591.533a62.33 62.33 0 0 1-6.05 1.3c-.364.044-.624.006-.793-.091-.221-.156-.204-.428.037-.797l.131-.178a.84.84 0 0 0 .419-.237c.024-.043.061-.106.076-.181l.134-.233c.18-.263.445-.477.812-.575l.203-.108c.045-.03.049-.085.04-.118-.02-.209-.011-.372.084-.487.146-.254.498-.473 1.002-.662.258-.105.482-.2.631-.312.244-.226.55-.415.832-.563.304-.134.498-.276.584-.424.106-.136.074-.324-.068-.518a.58.58 0 0 1 .081-.433c.107-.136.226-.292.369-.492l-.127-.073c-.085-.049-.142-.194-.15-.425.033-.545-.141-.927-.521-1.147-.191-.11-.409-.123-.684-.084-.255.05-1.372.617-3.327 1.66a80.29 80.29 0 0 1-1.794.909l-.385.228c-1.694.883-3.183 1.461-4.435 1.725-1.076.253-1.8.286-2.16.078-.22-.155-.182-.416.071-.805.375-.601 1.266-1.412 2.672-2.432.951-.72 1.862-1.321 2.688-1.775.917-.513 1.418-.844 1.491-.971.037-.064.019-.13-.074-.212-.085-.05-.245-.114-.427-.19.065-.16.141-.342.248-.477a2.472 2.472 0 0 0-.131-.555c-.24-.561-.501-.938-.755-1.084-.212-.123-.517-.13-.905-.044-1.172.564-2.612 1.593-4.308 3.067-1 .804-1.831 1.706-2.447 2.675-.927 1.41-.968 3.19-.081 5.365.117.237.334.447.609.606Zm1.959-.56c-.085-.05-.115-.095-.078-.159a.28.28 0 0 1 .191-.087c.248.059.666.019 1.242-.1.618-.094.948-.13 1.012-.093-.037.064-.471.18-1.292.382-.618.095-.97.117-1.075.056Zm2.788-.533-.021-.013.028-.097c.024-.042.124-.069.279-.092l.012-.021.021.012c.258-.105.412-.128.455-.104a.427.427 0 0 1-.104.081c-.079.04-.145.057-.224.096-.1.027-.246.084-.446.138Zm10.928 10.368c.064.037.254.147.583.309.33.162 1.038.204 2.134.16.494-.024 1.242-.1 2.224-.238a8.751 8.751 0 0 0 1.385-.3c.325-.122.558-.185.713-.208.142-.003.33-.035.551-.077.131.02.531-.088 1.255-.318.246-.084.392-.14.428-.204-.03-.046-.172-.043-.393-.002a41.568 41.568 0 0 1-7.176.368c-.021-.012-.054-.003-.109-.006a1.715 1.715 0 0 1-.206-.035c-.054-.003-.13-.018-.16-.064-.042-.024-.051-.058-.014-.121.14-.145.419-.237.912-.263 1.012-.092 1.699-.062 2.083.104.227.046.491.029.803-.073.167-.044.3-.08.43-.061 2.736-.197 5.491-.72 8.32-1.568 1.104-.35 1.698-.598 1.784-.746-.043-.025-.606.073-1.658.283l-.797.16c.17-.1 1.277-.503 3.309-1.19.758-.24 1.174-.422 1.223-.507.012-.02.012-.02-.009-.033-.085-.049-.782.084-2.116.442a43.983 43.983 0 0 1-7.94 1.448c-1.439.1-2.817.094-4.139-.106-.727-.11-1.338-.321-1.79-.61a2.021 2.021 0 0 1-.748-.855l-.069-.124c-.108-.204-.11-.346-.061-.43.024-.043.082-.094.152-.167a.812.812 0 0 0 .246-.28c.073-.127.138-.287.178-.405.073-.127.113-.245.174-.35.11-.19.255-.248.391-.141l.094.082a.052.052 0 0 0 .066-.018s.025-.042.028-.097c.003-.054.028-.096.031-.15.003-.055.028-.098.052-.14.305-.529.6-.697.884-.505l.313.238c.505.347 1.346.55 2.478.64.218.014.602-.018 1.142-.073 1.133-.107 1.79-.122 1.938-.037l-.012.021c-.135.233-.756.382-1.877.468-.836.08-1.527.105-2.138.09a3.004 3.004 0 0 0-.648-.148l-.109-.007a.56.56 0 0 0-.226-.046c-.097-.028-.164-.01-.188.032-.013.021.005.088.078.158.132.161.21.319.17.437-.006.109.021.209.147.282.064.037.17.098.309.15.998.322 2.433.277 4.231-.15.976-.227 1.626-.669 2.004-1.324.061-.106.065-.16.001-.197-.042-.025-.197-.001-.485.058-.345.11-.554.13-.606.073l-.072-.07c.107-.136.301-.277.571-.403.349-.165.556-.328.641-.476.073-.126.08-.236.002-.393-.102-.116-.093-.28.029-.49.068-.215.19-.427.324-.66.056-.193.039-.457-.105-.793-.231-.528-.611-.945-1.073-1.268-.893-.6-1.858-.932-2.905-.973-1.778.101-3.495.633-5.149 1.594a10.415 10.415 0 0 0-2.934 2.592c-.177.208-.299.42-.421.63a5.609 5.609 0 0 0-.364.777c-.128.32-.154.757-.124 1.338.029.44.03.779-.011 1.093-.028.294-.002.59.024.888.047.309.212.658.47 1.089.535.929 1.044 1.561 1.527 1.896Zm4.658-8.164c-.136-.107-.196-.198-.135-.304.036-.063.14-.144.285-.201.395-.195.895-.33 1.501-.402.848-.103 1.499-.009 1.919.29.232.134.298.313.2.482-.183.317-.665.518-1.489.578-1.009.038-1.777-.096-2.281-.443Zm-2.229 1.955c.263.18.486.28.671.303.185.022.285-.005.309-.047.049-.085-.023-.155-.159-.261-.106-.061-.254-.147-.456-.236-.097-.027-.197 0-.306-.007-.121.015-.179.066-.204.108-.012.021.018.067.145.14Zm6.909 12.644c.958.44 2.047.702 3.279.765.721.022 1.148.014 1.293-.043a.491.491 0 0 1 .343-.056c.151.031.414.014.802-.072 0 0 .013-.02.034-.009.454-.104.721-.175.821-.202.346-.11.717-.46 1.122-1.016l.318-.55c.547-1.093.542-2.11-.002-3.073a12.76 12.76 0 0 0-1.568-2.118c-.021-.012-.042-.024-.051-.057 0 0-.154-.173-.431-.475-.504-.544-.702-.884-.595-1.02.024-.042.091-.06.179-.066.075.016.154-.023.215-.129 1.797-.964 3.457-1.105 5.023-.398.486.28.881.621 1.164 1.01.181.274.355.46.537.536.202.088.393.001.607-.27.621-.882.928-1.804.945-2.81.012-.753-.321-1.397-1-1.93l-.063-.036c-1.224-.566-2.626-.727-4.226-.495-1.587.211-3.055.605-4.402 1.18-.334.286-.556.525-.712.745-.405.555-.744 1.29-.997 2.215-.086.345-.145.593-.146.79-.013.218.143.533.465 1.001.638 1.045 1.189 1.701 1.608 2 .118.04.251.2.377.471.071.267.192.449.349.568.148.085.235.276.243.507a.546.546 0 0 1-.059.248c-.094.114-.352.22-.804.269-.927.14-1.932.124-3.016-.05-.62-.048-1.276-.23-1.968-.545-.693-.315-1.232-.796-1.569-1.385l-.254-.682a.185.185 0 0 1-.082-.104c-.053-.2-.135-.303-.177-.327-.042-.025-.133.035-.219.183-.43.795-.485 1.524-.164 2.189.489.96 1.234 1.671 2.256 2.148 1.033.456 2.277.694 3.773.74 1.002.072 1.547.104 1.631.153.042.025.051.058.039.08-.082.093-.282.146-.612.181-.694.079-1.142.074-1.312-.024-.239-.025-.381-.023-.481.004-.264.017-.848-.095-1.764-.314-.442-.114-.732-.197-.859-.27l-.45-.147c-.527-.163-.808-.213-.82-.192-.037.064.192.252.712.524.212.122.444.257.668.358Zm12.23-9.318c-.434-.42-.736-.679-.96-.78-.202-.089-.644-.203-1.303-.33l-.484-.138c.182-.12.63-.115 1.314-.03a2.503 2.503 0 0 1 1.423.708c.217.21.283.39.234.474-.057.05-.124.069-.224.096Zm-2.928 20.89c.191.11.396.144.651.094-.335-1.519-.33-2.7-.026-3.567.109-.727.296-1.295.507-1.709a16.6 16.6 0 0 1 .455-.837c.403-.697 1.015-1.612 1.817-2.756l.073-.127c.042.024.097.027.164.01.066-.018.124-.07.173-.154a.791.791 0 0 0-.02-.406c-.039-.079-.056-.146-.032-.188.012-.021.046-.03.058-.051a.648.648 0 0 0 .29.083c.251.004.598-.303 1.04-.922.07-.072.131-.178.216-.326.016-.076.007-.11-.014-.121-.318.013-.461.016-.482.004-.021-.013.003-.055.04-.118.061-.106.198-.196.41-.271.112-.048.212-.075.288-.06.185.023.272.017.306.008.012-.021.152-.166.432-.455.228-.15.389-.283.516-.407.128-.123.232-.205.289-.256.058-.051.119-.157.18-.263-.009-.033-.039-.078-.078-.157-.051-.058-.032-.188.077-.379.098-.169.189-.229.274-.18a.403.403 0 0 1 .154.173c.039.08.069.125.09.137.009.033.009.033.03.046.088-.006.179-.066.252-.193a.188.188 0 0 0 .019-.13c.085-.148.155-.22.197-.196l.399.286.067-.018c-.027-.1-.126-.27-.28-.443-.154-.173-.223-.298-.195-.395.061-.105.143-.199.225-.292a.82.82 0 0 1 .231-.205c.058-.051.113-.048.134-.036.042.025.027.1-.026.24-.088.202-.086.344-.022.38.314.041.575-.118.771-.456.134-.233.147-.45.03-.688l.012-.02.021.011c.402.232.775.222 1.13-.052.24-.171.462-.41.684-.648.301-.277.566-.491.781-.62a.75.75 0 0 0 .177-.209c.037-.063.052-.138.068-.214-.006-.088.362-.383 1.148-.916l.013-.02c.036-.064.103-.082.224-.097.294.029.482-.004.53-.088l-.017-.067c.012-.021.057-.051.157-.078.246-.084.404-.162.453-.246l.004-.251.061-.106c.994.377 1.56.618 1.708.704.489.226.813.3 1.004.213.17-.099.291-.114.355-.077l.014.121c-.01.164.026.297.162.404.19.11.372.186.577.22.956.298 2.18.864 3.681 1.73.39.254.834.51 1.278.767.839.597 1.403 1.035 1.693 1.315.256.29.563.636.879 1.016.256.288.41.462.516.523.084.049.163.01.249-.139.076-.18.041-.314-.062-.43l-.147-.282c.024-.042.07-.072.146-.057.075.016.121-.014.157-.078-.035-.866-.25-1.47-.658-1.79-.271-.213-.383-.362-.355-.458.012-.022.045-.03.1-.027.054.003.118.04.236.08.097.027.181.076.245.113.063.036.105.06.16.064-.281-.782-1.513-1.775-3.702-3.011-2.19-1.237-3.964-2.12-5.343-2.662.24-.171.638-.42 1.206-.77.705-.439 1.306-.796 1.813-1.04.528-.23.859-.462 1.017-.737.074-.127.041-.314-.088-.53-.199-.34-.224-.637-.12-.915l.241-.368c.057-.052.106-.136.167-.242.138-.287.07-.608-.159-.994-.243-.507-.517-.862-.834-1.045-.465-.269-.987-.147-1.585.353a11.63 11.63 0 0 1-1.015.683l-3.108 2.209c-.829.705-1.437 1.171-1.81 1.379-.34.001-1.79-.611-4.371-1.903-1.858-.932-2.943-1.446-3.242-1.562a17.982 17.982 0 0 1-1.318-.648l-.241-.168-.287-.137c-.034.009-.076-.016-.118-.04-.36-.208-.586-.254-.66-.127l-.012.02c-.151.506.277 1.035 1.271 1.608.613.355 1.054.665 1.292.887.072.07.124.128.187.165.507.49.754.745.729.787-.323-.074-.508-.096-.545-.032.003.142.093.279.229.385l1.099.635.03.046c-.021-.013-.075-.016-.205-.035-.131-.018-.218-.013-.243.03-.012.02-.015.075.015.12.101.313.497.654 1.173 1.045l2.678 1.123a2.035 2.035 0 0 0-.383.37l-3.103 2.494a45.132 45.132 0 0 0-6.123 6.163 27.857 27.857 0 0 0-1.278 1.968c-.671 1.163-1.118 2.23-1.34 3.201-.743 2.165-.636 4.031.311 5.564.274.356.521.611.711.721Zm2.387-8.968c-.021-.012.007-.109.071-.269.037-.063.082-.093.103-.081.03.045.003.142-.058.248-.049.084-.074.127-.116.102Zm.664-.857.098-.169c.207-.36.372-.546.523-.515.021.012.009.033-.016.075l-.332.429c-.161.132-.252.192-.273.18Zm1.467-1.662s-.009-.033.016-.075c.253-.39.478-.683.709-.888.231-.204.368-.295.431-.258l.009.033c-.049.085-.201.25-.435.51-.033.01-.067.018-.103.081-.037.064-.095.115-.177.209-.103.08-.173.153-.243.226-.082.093-.14.144-.173.153l-.034.01Zm4.66-4.555c-.021-.012-.009-.033.003-.054.049-.085.152-.166.319-.21.067-.019.121-.015.142-.003.009.033-.003.054-.015.076-.037.063-.095.114-.207.162-.112.048-.179.066-.242.03Zm1.173.311c-.084-.048-.136-.106-.099-.17.082-.093.149-.111.212-.074.085.049.115.094.066.179-.024.042-.07.072-.179.065Zm9.302-1.902a1.327 1.327 0 0 1-.353-.317c.061-.106.415.014 1.028.368.254.147.357.262.32.326-.049.084-.369-.044-.995-.377Zm1.994 1.038-.105-.06a.454.454 0 0 1-.145-.14c.024-.043.079-.04.163.009a.552.552 0 0 1 .196.198l-.109-.007Zm4.052 2.65c-.042-.025-.063-.037-.039-.08.025-.041.058-.05.125-.068.054.003.097.027.097.027.084.05.135.107.099.17-.037.064-.134.036-.282-.05Zm-.832-.707c-.487-.28-1.275-.82-2.355-1.585.535.197.991.432 1.435.688 1.015.586 1.486.942 1.434 1.081-.025.043-.185-.022-.514-.184Zm-6.514 2.103c.486.281 1.213.194 2.16-.275.304-.135.595-.248.84-.332.355-.077.583-.228.693-.418a1.92 1.92 0 0 0 .102-.42 1 1 0 0 1 .098-.366c.028-.097.073-.127.094-.115 0 0 .034-.009.055.003.021.013.054.004.054.004.022.012.013-.022.025-.043.068-.411-.136-.84-.579-1.292-.38-.417-.745-.712-1.104-.92-.496-.117-1.039-.007-1.628.33-.589.336-.969.652-1.185.978-.183.317-.314.495-.33.57-.235.457-.273.914-.103 1.351.247.452.512.775.808.945Zm-11.197 5.77c-.115-.094-.126-.27-.016-.46.131-.178.255-.247.382-.174.127.074.142.195.044.364-.125.266-.262.356-.41.27Zm-.087 3.813c.381.22.828.421 1.409.588l.278.104c.303.062.475.105.529.108a.293.293 0 0 0 .167-.044c.079-.04.179-.066.346-.111.558-.185 1.385-.3 2.46-.355.636-.028 1.112-.12 1.428-.276.416-.183.643-.333.717-.46.012-.021.003-.054-.018-.067-.085-.048-.382-.022-.879.057-1.194.213-2.323.265-3.368.17-1.501-.134-2.358-.262-2.59-.396-.021-.013-.021-.013-.009-.034.036-.063.542-.11 1.472-.108 2.583-.031 4.858-.212 6.807-.609 2.341-.734 4.332-1.643 5.947-2.684.374-.207.568-.348.642-.475a.185.185 0 0 0-.021-.21 1.005 1.005 0 0 1-.074-.212l.364-.24c.522-.319.808-.52.844-.584.013-.021.013-.021-.009-.033-.021-.013-.142.002-.33.035-3.31 1.387-5.766 2.224-7.382 2.532-1.624.274-3.169.313-4.655.103l-.105-.061c-.169-.098-.205-.231-.129-.412.22-.381 1.059-1.052 2.559-1.99.683-.452 1.242-.834 1.656-1.16.343-.252.683-.45 1.029-.56.558-.186.901-.439 1.038-.726.159-.275.11-.726-.124-1.397-.285-.53-.613-.89-.973-1.097-.676-.39-1.482-.264-2.418.38-.137.09-.294.168-.473.234-.192.087-.328.177-.453.246a26.185 26.185 0 0 0-5.408 4.63 8.249 8.249 0 0 0-1.124 1.606c-.794 1.572-.503 2.727.85 3.508Zm.891-4.814c-.064-.037-.06-.091-.066-.179.016-.076.031-.151.068-.215l.048-.084c.131-.178.259-.302.441-.422a6.93 6.93 0 0 0 .414-.325c.094-.115.255-.248.495-.42.231-.204.471-.376.745-.556.24-.172.434-.313.58-.37.157-.078.303-.135.415-.183.134-.036.24-.171.362-.383l.077-.181c.089-.203.162-.33.22-.38.036-.064.264-.215.68-.397.349-.165.576-.316.671-.43.213-.272.386-.426.532-.483a.926.926 0 0 1 .3-.08c.121-.015.246-.084.416-.183.24-.171.537-.197.903-.099l.096.028c.127.073.154.173.093.279-.028.097-.173.153-.416.183-.263.017-.439.028-.581.03-.143.003-.255.05-.304.135-.036.064-.218.184-.501.331l-.431.259-.342.056a.767.767 0 0 0-.48.343c-.037.063-.086.148-.177.208-.082.094-.164.187-.271.323-.106.136-.222.238-.338.34a.508.508 0 0 0-.252.193c-.027.097-.11.19-.225.293l-.474.43c-.149.112-.319.211-.502.332-.373.207-.589.336-.646.388-.07.072-.249.138-.549.218-.122.015-.225.096-.289.256l-.475.628c-.116.102-.195.141-.237.117Zm10.865-7.343c-.031-.046-.039-.08-.003-.143.061-.106.326-.32.814-.63.407-.215.653-.3.716-.262.043.024.052.057.015.12-.061.106-.28.29-.611.522-.565.294-.868.43-.931.392Zm3.478 17.851c.064.037.13.019.179-.066.049-.084.031-.151-.032-.188-.085-.048-.152-.03-.213.075-.048.085-.018.13.066.179Zm-5.643.351c.203.088.535.196 1.022.28.466.071.923.11 1.35.103.44-.029.719-.121.829-.312.073-.127.231-.205.506-.243.255-.05.397-.052.461-.016.021.012.021.012.009.034-.025.042-.104.081-.261.159-.246.084-.371.153-.383.174-.012.021-.012.021.009.033.064.037.306.008.731-.142.324-.123.494-.222.531-.285.012-.021.012-.021-.009-.034l-.182-.076c-.063-.037-.072-.07-.047-.112.061-.106.34-.199.861-.321a5.844 5.844 0 0 0 1.523-.586c.41-.271.668-.376.743-.36.064.036.143-.003.216-.13.073-.127.152-.166.249-.138.084.049.242-.029.473-.234.152-.166.256-.247.319-.21.042.024.069.124.038.275.069.125.205.231.438.366.401.232 1.042.489 1.913.738.505.151.884.228 1.123.253a9.48 9.48 0 0 0 2.415-.325l.175-.011-1.38-.149c-.9.044-1.774-.15-2.605-.517-.335-.25-.48-.39-.455-.432.036-.064.221-.042.587.057.333.107.517.129.538.142a7.31 7.31 0 0 0 2.01.23c1.402-.037 2.135-.036 2.181-.066.033-.009.121-.015.263-.017.736-.055 1.133-.107 1.158-.15-.064-.036-.379-.077-.902-.098-.863-.019-1.396-.072-1.544-.158.66-.07 1.242-.1 1.711-.083.491.029.875-.002 1.154-.095.246-.084.458-.158.592-.194a3.052 3.052 0 0 0 1.056-.462c-.662-.27-1.132-.286-1.393-.127-1.332-.036-2.349-.032-3.049-.041a12.047 12.047 0 0 1-2.27-.267c-.1.026-.315-.041-.632-.224-.232-.135-.31-.292-.188-.504.18-.263.314-.495.445-.673a6.62 6.62 0 0 0 .375-.601c.223-.435.343-.789.396-1.125-.027-.1.025-.239.123-.408.238-.51.255-.98.027-1.366-.112-.149-.238-.419-.39-.789-.265-.519-.496-.85-.729-.984-.084-.049-.236-.08-.432-.08a.78.78 0 0 1-.433-.082c-.148-.085-.293-.225-.477-.444a3.276 3.276 0 0 0-.853-.718c-.804-.464-1.848-.56-3.1-.296-1.058.32-2.327 1.053-3.874 2.218-1.89 1.418-3.216 2.738-3.987 3.928-.782 1.353-.876 2.737-.303 4.138.36.744.778 1.239 1.286 1.532l.042.025Zm.728-3.02-.021-.012c-.148-.085-.147-.282.036-.599.061-.106.143-.2.213-.272.07-.072.186-.174.359-.328a53.967 53.967 0 0 1 2.35-2.167c.578-.512.921-.765 1.052-.746.121-.015.224-.096.309-.244.086-.148.268-.268.547-.361.258-.105.574-.261.905-.493.331-.231.577-.315.77-.26.181.077.424.048.724-.033.3-.08.509-.1.615-.04.084.05.066.18-.056.39l-.07.073c-.15.309-.249.675-.35 1.095-.102.42-.134.768-.096 1.044.029.243.007.427-.066.554-.131.178-.553.47-1.251.8-.71.351-1.484.666-2.345.986-.862.32-1.562.508-2.159.614-.74.109-1.233.134-1.466 0Zm.246 2.651c-.169-.097-.23-.188-.193-.252.086-.148.395-.195.952-.183.678-.003 1.563-.169 2.676-.485a22.09 22.09 0 0 0 3.17-1.243c.598-.303.922-.425.986-.389.063.037.069.125.008.23-.073.127-.165.187-.295.169-.033.009-.44.225-1.153.63-.735.394-1.587.747-2.546 1.04-1.349.433-2.422.631-3.194.552-.197-.001-.348-.032-.411-.069Zm9.826-4.616c.036-.064.11-.19.216-.326.119-.157.247-.28.374-.404a.724.724 0 0 1 .307-.19c.03.046.006.088-.043.172-.098.17-.353.417-.797.697l-.057.05Zm.879.48c-.051-.059-.036-.134.013-.219l.106-.136c.104-.081.17-.099.213-.074.03.045.014.12-.071.269-.073.127-.164.187-.261.16Zm.609-.861c-.072-.07-.102-.116-.066-.18.049-.084.107-.135.17-.098.043.024.073.07.061.09a.193.193 0 0 1-.028.097c-.049.085-.094.115-.137.09Zm5.402 3.485.297-.026c.885-.166 1.589-.408 2.114-.781-.181-.076-.39-.056-.648.049-.237.117-.47.179-.691.221a2.99 2.99 0 0 0-.783.281c-.17.099-.294.168-.319.211-.012.021.009.033.03.045Zm-1.072.734.251.004c.013-.021.034-.009.034-.009l.012-.021c.021.012.033-.009.045-.03-.202-.089-.311-.095-.372.011-.012.021.009.033.03.045Zm3.034-1.885c.105.061.205.034.266-.072.004-.054-.026-.1-.078-.157-.121.014-.188.032-.212.074-.037.064-.04.118-.019.13l.043.025Zm-4.26 1.713c.148.086.236.08.261.038.012-.021-.03-.046-.094-.083-.172-.043-.248-.058-.26-.037-.012.021-.003.054.018.067l.075.015Zm3.746 11.043c.148.085.526.162 1.155.244l.248.059c1.108.132 2.217.067 3.302-.152.166-.045.297-.026.381.023.106.061.26.037.464-.071.224-.096.458-.158.688-.166a13.5 13.5 0 0 0 2.44-.565c1.125-.337 1.695-.544 1.756-.649-.126-.074-.666-.018-1.672.162-2.291.453-3.946.682-4.942.699l-.924.086c-.021-.012-.042-.024-.076-.015-.706.1-1.238.046-1.568-.116-.084-.049-.136-.107-.141-.195.112-.048.421-.095.927-.141.176-.011.351-.022.548-.022 1.615-.111 2.639-.224 3.081-.307a16.496 16.496 0 0 0 1.858-.337l.309-.047c1.398-.321 2.577-.655 3.551-1.023.258-.105.546-.164.846-.244.685-.112 1.134-.304 1.41-.539.122-.212.141-.342.111-.387-.03-.046-.06-.091-.048-.113.012-.021.125-.069.303-.134a12.129 12.129 0 0 0 2.459-1.231 5.717 5.717 0 0 0-1.842.064c-.863.178-1.718.389-2.607.61-3.568.956-6.462 1.427-8.694 1.436a.557.557 0 0 1-.227-.047c-.127-.073-.105-.258.054-.533.208-.359.837-1.01 1.935-1.983l.787-.73c.335-.286.657-.551.979-.816.723-.569 1.161-.937 1.259-1.106.073-.127.107-.332.123-.605l.084-.487c.127-.463.125-.802.05-1.014l-.039-.079c-.072-.07-.099-.17-.101-.313-.011-.372-.281-.782-.773-1.151-.723-.36-2.444-.114-5.13.731-.692.221-1.092.329-1.256.319a1.69 1.69 0 0 1-.26-.038c-.151-.031-.293-.028-.384.032-.101.027-.167.045-.188.032l.012-.021c.036-.063.301-.277.817-.683l.128-.124c.435-.313.678-.539.739-.645.11-.19.051-.478-.181-.81-.112-.148-.202-.285-.238-.418-.277-.837-.512-1.31-.714-1.4-.233-.134-.682.058-1.347.576-.501.331-1.225.9-2.167 1.653-.905.689-2.285 1.81-4.194 3.358-1.164.991-1.839 1.672-2.047 2.032-.109.19-.131.375-.048.62a.96.96 0 0 1-.039.654c-.116.299-.117.496.001.536.063.037.193.056.402.035.209-.02.318-.013.382.023.021.012.039.079.023.155-.146.253.046.506.533.786a6.577 6.577 0 0 0 3.41-.878l.698-.33c-1.416.451-2.141.681-2.204.645-.021-.013-.009-.034.003-.055.073-.127 1.408-.681 4.026-1.651.325-.122 1.037-.331 2.138-.626l2.395-.731c.379-.12.622-.149.718-.121.064.036.061.091.012.175-.049.085-.177.209-.362.383l-.265.214a19.215 19.215 0 0 0-3.417 3.722l-.216.326c-.208.359-.261.695-.189.962.029.243.004.482-.052.675-.057.587.225 1.173.88 1.748l.127.074Zm-6.565-5.623c-.009-.033-.018-.066.007-.109.097-.169.404-.358.929-.535l.661-.266c1.811-.646 3.53-1.232 5.092-1.74 2.745-.896 4.3-1.295 4.657-1.23.021.012-.003.055-.04.118-.213.272-.741.502-1.584.693-.6.16-2.404.697-5.394 1.677-.337.144-1.666.59-3.94 1.306l-.179.066c-.1.027-.167.045-.209.02Zm17.13 2.899-.063-.037c-.043-.024-.039-.079.022-.184l.024-.043c.012-.021.033-.009.076.016.063.036.081.103.032.188-.037.063-.07.072-.091.06Zm.221-.042-.054-.003c-.043-.024-.027-.1.034-.206.037-.063.082-.093.124-.069.064.037.061.091.024.155-.082.093-.107.136-.128.123Zm.37-.152-.042-.025s-.009-.033.007-.109c.061-.105.118-.157.182-.12.051.058.069.124.02.209-.012.021-.045.03-.091.06-.033.009-.054-.003-.076-.015Zm.783-.282c-.042-.024-.042-.024-.03-.045a.425.425 0 0 1 .149-.111l.333-.09c.2-.053.321-.068.43-.062.022.013.043.025.031.046l-.025.042c-.237.117-.428.204-.603.216-.155.023-.264.017-.285.004Z" fill="#725A1A"/><path d="m629.571 425 .429-3-4.5 4-4.5 3 2.5-.5 3.5-.5 2.571-3Z" stroke="#fff"/><circle cx="623" cy="422" r="7.5" stroke="#fff"/><path d="M625.15 428.074c.698-.401 1.466-.719 2.126-1.179.279-.195.034-.138-.126-.097-.329.085-.65.197-.973.303-.001 0-.403.107-.398.097.038-.076.343-.146.404-.171.296-.12 1.18-.494.887-.366-.44.193-.908.332-1.369.467-.06.018-.579.243-.429.147.33-.209.722-.353 1.077-.511.45-.199-.33.134-.393.158-.824.311-1.671.548-2.49.869-.122.047-.219.142-.341.187-.037.013-.163.035-.183.08-.039.092.504.001.545-.011a11.13 11.13 0 0 0 1.811-.704c.174-.084.449-.192.496-.404.021-.095.075-.202.118-.29.296-.614.633-1.142 1.198-1.548.12-.086.337-.31.501-.319.029-.002-.148.141-.173.164-.433.391-.913.767-1.438 1.026-.36.177-.736.259-1.106.399a1.896 1.896 0 0 0-.644.446c-.081.084-.051.303.076.341.183.054.601-.208.753-.278a17.76 17.76 0 0 0 2.468-1.409c.461-.311.787-.828 1.178-1.219.189-.189.402-.336.568-.549.056-.072-.067-.063-.11-.055-.123.022-.258.198-.34.28-.184.183-.397.36-.551.57-.196.266-.36.51-.608.738-.09.082-1.521 1.002-1.072 1.209.193.089.453.023.639-.038.479-.157 1.156-.386 1.518-.768.174-.183.213-.535.301-.763.091-.236.215-.457.303-.696.015-.041.136-.345.016-.185-.137.183-.282.337-.407.534-.172.272-.32.552-.476.833-.286.515-.566 1.141-1.152 1.379-.144.059-.264.169-.408.236-.323.15-.682.246-.992.425-.269.154-.538.266-.787.454-.145.109-.363.408-.547.408" stroke="#fff" stroke-linecap="round" stroke-linejoin="round"/><path d="m596.286 407.5.214-1.5-2.25 2-2.25 1.5 1.25-.25L595 409l1.286-1.5Z" stroke="#fff"/><circle cx="593" cy="406" r="3.5" stroke="#fff"/><path d="M594.075 409.037c.349-.2.733-.359 1.063-.59.14-.097.017-.069-.063-.048-.165.042-.325.099-.487.151 0 0-.201.054-.198.049.018-.038.171-.073.201-.086.149-.06.591-.247.444-.182-.22.096-.454.165-.684.233-.031.009-.29.122-.215.074.165-.105.361-.177.538-.256.225-.1-.165.067-.196.079-.412.156-.836.274-1.245.434-.061.024-.11.071-.17.094-.019.007-.082.017-.092.04-.019.046.252 0 .273-.006a5.47 5.47 0 0 0 .905-.352c.087-.042.224-.096.248-.202a.67.67 0 0 1 .059-.145c.148-.306.317-.571.599-.774.06-.043.168-.155.25-.159.015-.001-.074.071-.086.082a3.248 3.248 0 0 1-.719.513c-.18.088-.368.129-.553.199a.96.96 0 0 0-.322.223c-.04.042-.026.152.038.171.092.027.301-.104.376-.139a8.766 8.766 0 0 0 1.235-.705c.23-.155.393-.414.589-.609.094-.095.201-.168.283-.275.028-.036-.033-.031-.054-.027-.062.011-.13.099-.171.14-.091.092-.198.18-.275.285-.098.133-.18.255-.304.369-.045.041-.76.501-.536.604.097.045.226.012.32-.019.239-.078.578-.192.759-.383.086-.092.106-.268.15-.382.045-.118.107-.229.151-.348.008-.021.069-.173.009-.093-.069.092-.142.169-.204.267-.086.136-.16.277-.238.417-.143.257-.283.57-.576.69-.072.029-.132.084-.204.117-.162.075-.341.124-.496.213-.134.077-.269.133-.393.227-.073.055-.182.204-.274.204" stroke="#fff" stroke-linecap="round" stroke-linejoin="round"/><path d="m614.286 384.5.214-1.5-2.25 2-2.25 1.5 1.25-.25L613 386l1.286-1.5Z" stroke="#fff"/><circle cx="611" cy="383" r="3.5" stroke="#fff"/><path d="M612.075 386.037c.349-.2.733-.359 1.063-.59.14-.097.017-.069-.063-.048-.165.042-.325.099-.487.151 0 0-.201.054-.198.049.018-.038.171-.073.201-.086.149-.06.591-.247.444-.182-.22.096-.454.165-.684.233-.031.009-.29.122-.215.074.165-.105.361-.177.538-.256.225-.1-.165.067-.196.079-.412.156-.836.274-1.245.434-.061.024-.11.071-.17.094-.019.007-.082.017-.092.04-.019.046.252 0 .273-.006a5.47 5.47 0 0 0 .905-.352c.087-.042.224-.096.248-.202a.67.67 0 0 1 .059-.145c.148-.306.317-.571.599-.774.06-.043.168-.155.25-.159.015-.001-.074.071-.086.082a3.248 3.248 0 0 1-.719.513c-.18.088-.368.129-.553.199a.96.96 0 0 0-.322.223c-.04.042-.026.152.038.171.092.027.301-.104.376-.139a8.766 8.766 0 0 0 1.235-.705c.23-.155.393-.414.589-.609.094-.095.201-.168.283-.275.028-.036-.033-.031-.054-.027-.062.011-.13.099-.171.14-.091.092-.198.18-.275.285-.098.133-.18.255-.304.369-.045.041-.76.501-.536.604.097.045.226.012.32-.019.239-.078.578-.192.759-.383.086-.092.106-.268.15-.382.045-.118.107-.229.151-.348.008-.021.069-.173.009-.093-.069.092-.142.169-.204.267-.086.136-.16.277-.238.417-.143.257-.283.57-.576.69-.072.029-.132.084-.204.117-.162.075-.341.124-.496.213-.134.077-.269.133-.393.227-.073.055-.182.204-.274.204" stroke="#fff" stroke-linecap="round" stroke-linejoin="round"/><path d="m591.375 362.312.187-1.312-1.968 1.75-1.969 1.312 1.094-.218 1.531-.219 1.125-1.313Z" stroke="#fff"/><circle cx="588.5" cy="361" r="3" stroke="#fff"/><path d="M589.441 363.658c.305-.176.641-.315.93-.517.122-.085.015-.06-.055-.042-.144.037-.285.087-.426.133-.001 0-.176.046-.174.042.016-.033.15-.064.176-.075.13-.052.517-.216.389-.16-.193.085-.398.145-.599.205-.027.007-.254.106-.188.064.144-.092.316-.154.471-.224.197-.087-.144.059-.172.069-.36.137-.731.24-1.089.38-.054.021-.096.063-.149.082-.017.006-.072.016-.08.035-.017.041.22.001.238-.004.271-.076.539-.187.792-.309.076-.036.197-.083.217-.176a.64.64 0 0 1 .052-.127c.129-.269.277-.5.524-.677.053-.038.147-.136.219-.14.013-.001-.065.062-.075.072-.19.171-.4.336-.63.449-.157.077-.322.113-.483.174a.825.825 0 0 0-.282.195c-.035.037-.023.133.033.149.08.024.263-.09.33-.121a7.792 7.792 0 0 0 1.08-.616c.201-.137.343-.363.515-.534.082-.083.176-.147.248-.24.025-.032-.029-.027-.048-.024-.054.01-.113.086-.149.122-.08.081-.173.158-.241.25-.086.116-.157.223-.266.323-.039.036-.665.438-.469.529.085.039.198.01.28-.017.21-.069.506-.169.664-.336.076-.08.093-.234.132-.334.039-.103.094-.2.132-.304.007-.018.06-.151.007-.081-.06.08-.123.147-.178.234-.075.118-.14.241-.208.364-.125.225-.248.499-.504.603-.063.026-.116.074-.179.103-.141.066-.298.108-.434.186-.117.068-.235.117-.344.199-.063.048-.159.178-.239.178" stroke="#fff" stroke-linecap="round" stroke-linejoin="round"/><path d="m577.643 331.75.107-.75-1.125 1-1.125.75.625-.125.875-.125.643-.75Z" stroke="#fff"/><circle cx="576" cy="331" r="1.5" stroke="#fff"/><path d="M576.538 332.519c.174-.101.366-.18.531-.295.07-.049.009-.035-.031-.025-.083.022-.163.05-.244.076 0 0-.1.027-.099.024.009-.019.085-.036.101-.042.074-.03.295-.124.222-.092-.11.048-.228.083-.343.117-.015.004-.145.061-.107.037.082-.053.18-.088.269-.128.113-.05-.082.034-.098.039-.206.078-.418.137-.622.218-.031.012-.055.035-.086.046-.009.004-.041.009-.045.02-.01.023.125.001.136-.002.155-.043.308-.107.452-.176.044-.021.113-.048.124-.101a.387.387 0 0 1 .03-.073.956.956 0 0 1 .3-.387c.029-.021.084-.077.125-.08.007 0-.037.036-.043.041a1.653 1.653 0 0 1-.36.257c-.09.044-.184.065-.277.1a.48.48 0 0 0-.16.111c-.021.021-.013.076.019.085.045.014.15-.052.188-.069.213-.099.422-.221.617-.352.115-.078.196-.207.294-.305.048-.047.101-.084.142-.137.014-.018-.017-.016-.027-.014-.031.006-.065.049-.085.07-.046.046-.099.09-.138.142-.049.067-.09.128-.152.185-.022.02-.38.25-.268.302.048.022.113.006.16-.009.12-.04.289-.097.379-.192.044-.046.054-.134.075-.191.023-.059.054-.114.076-.174.004-.01.034-.086.004-.046-.034.046-.07.084-.102.133-.043.068-.079.138-.118.208-.072.129-.142.286-.288.345-.036.015-.066.042-.102.059-.081.038-.171.062-.249.106-.067.039-.134.067-.196.114-.036.027-.091.102-.137.102" stroke="#fff" stroke-linecap="round" stroke-linejoin="round"/><g opacity=".03" fill="#fff"><path d="M36.554 561.223c1.254 3.643 2.797 6.202 2.899 6.369a2.434 2.434 0 0 0 2.643 1.099c.559-.134 13.733-3.389 17.739-13.023.32-.772.606-1.551.857-2.334-7.267 4.365-15.767 6.767-24.138 7.889ZM14.538 538.903a29.73 29.73 0 0 1 2.644-.128c1.828-10.88 5.916-21.713 13.72-29.517a63.106 63.106 0 0 1 5.508-4.894c-2.498-.712-5.66-.902-9.642-.105-7.814 1.563-11.486 9.992-13.247 17.74-1.663 7.317-1.682 14.197-1.682 14.486a2.436 2.436 0 0 0 2.699 2.418ZM27.824 561.948c-1.406.044-3.466.065-4.875-.013a7.291 7.291 0 0 1-6.883-6.887c-.052-.962-.078-2.809-.013-4.871-3.279.454-7.746.571-13.143-.509A2.433 2.433 0 0 0 0 552.053c0 5.134 1.682 9.64 4.614 12.362a172.325 172.325 0 0 1 8.972 8.973c2.723 2.932 7.228 4.613 12.362 4.613a2.433 2.433 0 0 0 2.385-2.909c-1.08-5.398-.962-9.865-.509-13.144Z"/><path d="M74.005 529.837c-11.194-.782-25.026-14.593-25.84-25.811-.009-.13-.006-.052-.006-1.627-5.213 2.879-9.856 6.337-13.816 10.298-8.808 8.808-12.44 22.399-13.28 34.704-.21 3.084-.218 5.938-.139 7.382a2.432 2.432 0 0 0 2.294 2.294c3.102.173 8.945-.056 14.58-.953 8.614-1.375 17.3-4.224 24.17-9.538.003-.052 1.277-.92 3.45-3.043 3.896-3.919 7.347-8.534 10.145-13.594l-1.558-.112Z"/><path d="M82.85 502.92c-.212-1.837-.8-3.888-2.02-5.3-2.677-3.104-8.852-2.85-12.909-2.237-5.04.762-10.288 2.495-14.896 4.578v3.796c.711 8.799 12.59 20.617 21.323 21.227l3.59.257c2.906-6.358 5.754-15.402 4.912-22.321Zm-17.828 7.166a2.428 2.428 0 0 1-.999-3.289c.592-1.182 2.216-1.718 3.495-.877.517.341.897.887 1.035 1.547.387 2.07-1.767 3.565-3.53 2.619Z"/></g><g opacity=".03" fill="#fff"><path d="M61.425 121.372c.906 2.634 2.022 4.483 2.095 4.604.4.655 1.173.971 1.91.794.405-.096 9.928-2.449 12.824-9.414.232-.557.438-1.121.62-1.687-5.254 3.155-11.398 4.892-17.45 5.703ZM45.51 105.237c.016-.002.789-.083 1.91-.092 1.322-7.865 4.277-15.697 9.919-21.338a45.568 45.568 0 0 1 3.982-3.538c-1.806-.515-4.091-.652-6.97-.076-5.65 1.13-8.304 7.223-9.577 12.824-1.202 5.29-1.216 10.263-1.216 10.472 0 1.04.904 1.86 1.951 1.748ZM55.114 121.896c-1.016.032-2.506.047-3.524-.009a5.271 5.271 0 0 1-4.976-4.979c-.038-.696-.057-2.03-.01-3.521-2.37.328-5.599.413-9.5-.368A1.759 1.759 0 0 0 35 114.743c0 3.711 1.216 6.969 3.335 8.937a124.375 124.375 0 0 1 6.486 6.486c1.968 2.119 5.226 3.335 8.937 3.335a1.76 1.76 0 0 0 1.724-2.104c-.78-3.901-.696-7.13-.368-9.501Z"/><path d="M88.498 98.683c-8.093-.565-18.092-10.549-18.68-18.658-.006-.094-.004-.038-.004-1.176-3.769 2.08-7.125 4.58-9.988 7.444-6.367 6.367-8.993 16.192-9.6 25.087-.151 2.23-.157 4.293-.1 5.336.05.895.764 1.609 1.659 1.659 2.242.125 6.465-.04 10.54-.689 6.225-.994 12.505-3.054 17.471-6.895.002-.038.923-.665 2.494-2.2 2.817-2.833 5.311-6.169 7.334-9.827l-1.126-.08Z"/><path d="M94.891 79.225c-.153-1.328-.578-2.81-1.46-3.83-1.935-2.245-6.398-2.061-9.331-1.618-3.644.55-7.437 1.803-10.769 3.31v2.744c.514 6.36 9.101 14.903 15.415 15.344l2.594.186c2.102-4.596 4.16-11.134 3.551-16.136Zm-12.887 5.18a1.755 1.755 0 0 1-.722-2.377c.428-.854 1.602-1.242 2.526-.634.374.246.649.641.748 1.118.28 1.497-1.277 2.577-2.552 1.894Z"/></g><g opacity=".03" fill="#fff"><path d="M895.612 610.052c-1.043 3.03-2.326 5.156-2.41 5.295a2.023 2.023 0 0 1-2.198.914c-.464-.112-11.416-2.817-14.746-10.827a25.144 25.144 0 0 1-.713-1.939c6.042 3.628 13.108 5.625 20.067 6.557ZM913.915 591.497c-.02-.002-.908-.095-2.199-.105-1.519-9.045-4.918-18.051-11.405-24.539a52.473 52.473 0 0 0-4.58-4.068c2.077-.592 4.705-.75 8.016-.088 6.496 1.3 9.549 8.306 11.013 14.748 1.382 6.083 1.398 11.802 1.398 12.042a2.024 2.024 0 0 1-2.243 2.01ZM902.869 610.655c1.169.037 2.882.055 4.053-.01a6.063 6.063 0 0 0 5.722-5.725c.043-.801.065-2.336.01-4.05 2.727.377 6.44.474 10.927-.423A2.023 2.023 0 0 1 926 602.43c0 4.267-1.398 8.013-3.835 10.277a142.958 142.958 0 0 0-7.459 7.458c-2.264 2.438-6.01 3.836-10.277 3.836a2.023 2.023 0 0 1-1.983-2.419c.897-4.487.8-8.201.423-10.927Z"/><path d="M864.478 583.961c9.306-.65 20.805-12.131 21.481-21.457.007-.108.005-.043.005-1.353 4.334 2.394 8.194 5.268 11.486 8.561 7.322 7.322 10.342 18.621 11.04 28.85.174 2.564.181 4.937.115 6.137a2.021 2.021 0 0 1-1.907 1.907c-2.579.144-7.436-.046-12.121-.792-7.16-1.143-14.381-3.512-20.093-7.929-.002-.044-1.061-.765-2.867-2.53-3.24-3.258-6.108-7.095-8.434-11.301l1.295-.093Z"/><path d="M857.125 561.584c.176-1.527.665-3.233 1.679-4.406 2.226-2.581 7.359-2.369 10.731-1.859 4.191.633 8.553 2.073 12.384 3.805v3.156c-.591 7.315-10.466 17.139-17.727 17.647l-2.983.213c-2.417-5.286-4.785-12.804-4.084-18.556Zm14.82 5.957a2.017 2.017 0 0 0 .831-2.734c-.492-.982-1.842-1.428-2.905-.729a2.03 2.03 0 0 0-.861 1.286c-.321 1.721 1.469 2.964 2.935 2.177Z"/></g><g opacity=".03" fill="#fff"><path d="M530.58 596.095c.741 2.151 1.651 3.662 1.712 3.76.326.535.957.793 1.56.649.33-.079 8.107-2 10.472-7.688.189-.456.358-.916.506-1.378-4.29 2.577-9.308 3.995-14.25 4.657ZM517.582 582.918c.014-.001.645-.068 1.561-.075 1.08-6.423 3.493-12.819 8.1-17.426a37.483 37.483 0 0 1 3.252-2.889c-1.475-.42-3.341-.532-5.692-.062-4.613.923-6.781 5.899-7.821 10.473-.982 4.32-.993 8.381-.993 8.552 0 .849.738 1.519 1.593 1.427ZM525.426 596.523c-.83.026-2.046.039-2.878-.007a4.306 4.306 0 0 1-4.063-4.066 37.308 37.308 0 0 1-.008-2.876c-1.936.268-4.573.337-7.759-.3a1.436 1.436 0 0 0-1.718 1.408c0 3.03.993 5.691 2.724 7.298a101.779 101.779 0 0 1 5.297 5.297c1.607 1.731 4.267 2.724 7.298 2.724.905 0 1.586-.83 1.408-1.718-.637-3.187-.568-5.824-.301-7.76Z"/><path d="M552.69 577.567c-6.609-.462-14.775-8.615-15.255-15.238-.005-.077-.004-.031-.004-.961-3.077 1.7-5.819 3.741-8.156 6.08-5.2 5.2-7.345 13.223-7.84 20.488-.124 1.82-.129 3.505-.082 4.358.04.73.624 1.314 1.354 1.354 1.831.102 5.281-.033 8.608-.562 5.085-.812 10.213-2.495 14.269-5.631.001-.031.753-.544 2.036-1.797 2.301-2.314 4.338-5.038 5.989-8.026l-.919-.065Z"/><path d="M557.911 561.675c-.125-1.084-.472-2.295-1.192-3.128-1.581-1.833-5.226-1.683-7.621-1.321-2.976.45-6.073 1.473-8.794 2.703v2.241c.42 5.195 7.432 12.171 12.588 12.532l2.119.151c1.716-3.754 3.398-9.093 2.9-13.178Zm-10.524 4.231a1.432 1.432 0 0 1-.59-1.941c.349-.698 1.308-1.015 2.063-.518a1.435 1.435 0 0 1-1.473 2.459Z"/></g><g opacity=".03" fill="#fff"><path d="M627.58 85.095c.741 2.151 1.651 3.662 1.712 3.76.326.535.957.793 1.56.649.33-.079 8.107-2 10.472-7.688.189-.456.358-.916.506-1.378-4.29 2.577-9.308 3.995-14.25 4.657ZM614.582 71.918c.014-.001.645-.068 1.561-.075 1.08-6.423 3.493-12.819 8.1-17.426a37.449 37.449 0 0 1 3.252-2.889c-1.475-.42-3.341-.532-5.692-.062-4.613.923-6.781 5.899-7.821 10.473-.982 4.32-.993 8.381-.993 8.552 0 .85.738 1.52 1.593 1.427ZM622.426 85.523c-.83.026-2.046.039-2.878-.007a4.305 4.305 0 0 1-4.063-4.066 37.302 37.302 0 0 1-.008-2.876c-1.936.268-4.573.337-7.759-.3A1.437 1.437 0 0 0 606 79.682c0 3.03.993 5.69 2.724 7.298a101.775 101.775 0 0 1 5.297 5.297c1.607 1.73 4.267 2.724 7.298 2.724.905 0 1.586-.83 1.408-1.718-.637-3.187-.568-5.824-.301-7.76Z"/><path d="M649.69 66.567c-6.609-.462-14.775-8.615-15.255-15.238-.005-.077-.004-.03-.004-.96-3.077 1.699-5.819 3.74-8.156 6.079-5.2 5.2-7.345 13.223-7.84 20.488-.124 1.82-.129 3.505-.082 4.358.04.73.624 1.314 1.354 1.354 1.831.102 5.281-.033 8.608-.562 5.085-.812 10.213-2.495 14.269-5.631.001-.031.753-.544 2.036-1.797 2.301-2.314 4.338-5.038 5.989-8.026l-.919-.065Z"/><path d="M654.911 50.675c-.125-1.084-.472-2.295-1.192-3.128-1.581-1.833-5.226-1.683-7.621-1.32-2.976.449-6.073 1.472-8.794 2.702v2.241c.42 5.195 7.432 12.171 12.588 12.532l2.119.151c1.716-3.754 3.398-9.093 2.9-13.178Zm-10.524 4.231a1.433 1.433 0 0 1-.59-1.941c.349-.698 1.308-1.015 2.063-.518.305.201.53.523.611.913.228 1.222-1.043 2.105-2.084 1.546Z"/></g><g opacity=".03" fill="#fff"><path d="M815.264 168.319a16.22 16.22 0 0 1-1.327 2.916 1.114 1.114 0 0 1-1.21.503c-.256-.061-6.287-1.551-8.121-5.962a13.62 13.62 0 0 1-.393-1.069c3.328 1.998 7.219 3.098 11.051 3.612ZM825.344 158.1c-.011-.001-.5-.053-1.21-.058-.837-4.982-2.709-9.942-6.282-13.515a28.95 28.95 0 0 0-2.522-2.24c1.144-.326 2.591-.413 4.415-.048 3.577.715 5.259 4.574 6.065 8.122.761 3.35.77 6.499.77 6.632 0 .659-.572 1.178-1.236 1.107ZM819.261 168.651c.644.02 1.587.03 2.232-.006a3.338 3.338 0 0 0 3.151-3.153c.024-.441.036-1.286.006-2.23 1.502.207 3.547.261 6.018-.233a1.113 1.113 0 0 1 1.332 1.092c0 2.35-.77 4.413-2.112 5.659a78.792 78.792 0 0 0-4.108 4.108c-1.247 1.342-3.309 2.112-5.66 2.112-.702 0-1.23-.643-1.092-1.332.494-2.471.441-4.516.233-6.017Z"/><path d="M798.118 153.95c5.125-.359 11.458-6.682 11.83-11.818.005-.059.003-.023.003-.744 2.387 1.318 4.513 2.901 6.326 4.714 4.032 4.033 5.695 10.255 6.08 15.889.096 1.412.099 2.719.063 3.379a1.114 1.114 0 0 1-1.05 1.051c-1.42.079-4.095-.026-6.675-.436-3.944-.63-7.921-1.935-11.066-4.367-.001-.024-.585-.421-1.579-1.394a28.23 28.23 0 0 1-4.645-6.223l.713-.051Z"/><path d="M794.069 141.626c.097-.841.366-1.78.925-2.426 1.225-1.422 4.052-1.305 5.91-1.024 2.307.348 4.71 1.141 6.82 2.095v1.738c-.326 4.029-5.764 9.439-9.763 9.719l-1.643.117c-1.331-2.911-2.635-7.051-2.249-10.219Zm8.162 3.281c.524-.274.756-.947.457-1.506-.271-.541-1.014-.786-1.6-.402a1.115 1.115 0 0 0 1.143 1.908Z"/></g><g opacity=".03" fill="#fff"><path d="M65.86 333.297c-.725 2.108-1.617 3.587-1.676 3.684-.32.523-.938.776-1.529.635-.323-.077-7.942-1.959-10.258-7.531a17.22 17.22 0 0 1-.496-1.35c4.203 2.524 9.118 3.913 13.96 4.562ZM78.593 320.389c-.014-.001-.632-.066-1.53-.073-1.057-6.292-3.42-12.557-7.934-17.071a36.467 36.467 0 0 0-3.186-2.83c1.445-.411 3.273-.521 5.577-.06 4.519.903 6.642 5.778 7.66 10.259.962 4.231.973 8.21.973 8.377 0 .832-.722 1.489-1.56 1.398ZM70.909 333.717c.813.026 2.005.038 2.82-.008a4.216 4.216 0 0 0 3.98-3.982c.03-.557.045-1.625.007-2.817 1.897.262 4.48.33 7.601-.295a1.408 1.408 0 0 1 1.683 1.38c0 2.969-.973 5.574-2.668 7.149a99.31 99.31 0 0 0-5.189 5.189c-1.575 1.695-4.18 2.668-7.149 2.668a1.407 1.407 0 0 1-1.38-1.683c.625-3.121.557-5.705.295-7.601Z"/><path d="M44.202 315.147c6.474-.452 14.473-8.439 14.943-14.927.005-.075.004-.03.004-.941 3.015 1.665 5.7 3.665 7.99 5.956 5.094 5.093 7.195 12.953 7.68 20.069.121 1.784.126 3.434.08 4.269a1.407 1.407 0 0 1-1.327 1.327c-1.793.1-5.172-.032-8.432-.551-4.98-.795-10.004-2.443-13.977-5.516-.002-.03-.738-.532-1.995-1.76-2.254-2.266-4.249-4.935-5.867-7.862l.9-.064Z"/><path d="M39.087 299.58c.122-1.062.463-2.249 1.168-3.065 1.548-1.795 5.119-1.648 7.465-1.293 2.915.44 5.95 1.442 8.615 2.647v2.196c-.411 5.088-7.28 11.922-12.332 12.275l-2.075.149c-1.681-3.677-3.328-8.908-2.841-12.909Zm10.31 4.144a1.404 1.404 0 0 0 .578-1.902c-.343-.683-1.282-.993-2.022-.507a1.407 1.407 0 0 0-.598.895c-.224 1.197 1.022 2.061 2.042 1.514Z"/></g></svg>