<svg width="1440" height="498" fill="none" xmlns="http://www.w3.org/2000/svg"><mask id="a" style="mask-type:alpha" maskUnits="userSpaceOnUse" x="0" y="0" width="1440" height="498"><rect width="1440" height="498" rx="5" fill="#78C0DE"/></mask><g mask="url(#a)"><rect width="1444" height="498" rx="5" fill="#78C0DE"/><g opacity=".1" fill="#fff"><path d="M1348.87 201.397c-21.66-11.209-47.19-10.628-68.29 1.557-21.11 12.185-34.38 34.005-35.5 58.366l-2.7 58.702c-.45 9.739 2.19 19.167 7.63 27.26 5.45 8.094 13.18 14.092 22.37 17.352 9.2 3.252 18.98 3.454 28.3.586 9.31-2.869 17.28-8.543 23.05-16.406l.38-.529c14.61-19.613 36.88-32.366 61.21-35.028 6.27-.687 12.21-2.634 17.56-5.723a45.004 45.004 0 0 0 8.16-6.034c7.15-6.631 11.86-15.205 13.65-24.795 1.77-9.586.45-19.287-3.84-28.051-4.29-8.765-11.13-15.765-19.79-20.249l-52.19-27.008ZM1224.78 271.589c6.32-7.814 8.72-17.925 6.74-28.472-1.88-10.037-7.56-19.316-15.99-26.129-8.43-6.806-18.7-10.408-28.91-10.144-10.73.279-20.12 4.737-26.43 12.548-12.7 15.699-8.55 40.186 9.26 54.595 14.19 11.457 32.83 13.104 46.24 5.362a32.66 32.66 0 0 0 9.09-7.76ZM1258.19 207.535c20.7-11.952 26.74-40.386 13.46-63.384-13.28-23.004-40.93-31.994-61.63-20.042-20.7 11.951-26.73 40.387-13.45 63.391 13.28 22.998 40.92 31.986 61.62 20.035ZM1328.47 181.57v-.001a34.366 34.366 0 0 0 10.41-3.935c14.85-8.571 23-27.862 18.82-47.857-2.41-11.511-8.53-21.62-17.22-28.464-9.1-7.166-19.91-9.944-30.43-7.821-10.52 2.124-19.34 8.862-24.83 18.97-5.24 9.657-6.8 21.315-4.39 32.824 5.08 24.279 26.45 40.556 47.64 36.284ZM1403.85 130.883l-.01-.002c-20.09-2.216-38.6 14.459-41.26 37.179-2.64 22.721 11.54 43.025 31.62 45.261 7.32.817 14.44-.879 20.65-4.467 10.83-6.252 18.93-18.253 20.62-32.707 2.65-22.72-11.54-43.025-31.62-45.264Z"/></g><g opacity=".1" fill="#fff"><path d="M130.094 449.896c-4.256-13.386-14.89-23.547-28.448-27.18-13.558-3.633-27.848-.15-38.225 9.315l-25.009 22.806a25.815 25.815 0 0 0-7.992 14.211 25.814 25.814 0 0 0 2.044 16.178 25.778 25.778 0 0 0 11.284 11.761 25.744 25.744 0 0 0 16.07 2.707l.372-.058a50.966 50.966 0 0 1 39.19 10.659 25.77 25.77 0 0 0 15.267 5.691 25.774 25.774 0 0 0 15.654-4.543 25.804 25.804 0 0 0 9.862-12.986 25.816 25.816 0 0 0 .186-16.307l-10.255-32.254ZM50.97 427.944c5.758-.605 10.852-3.747 14.342-8.848 3.322-4.853 4.789-10.945 4.13-17.154-.662-6.205-3.377-11.853-7.644-15.906-4.483-4.255-10.123-6.264-15.874-5.653-11.568 1.22-19.85 12.882-18.465 26.004 1.116 10.448 8.035 18.708 16.65 21.017 2.199.589 4.51.79 6.86.54ZM90.664 415.465c13.299 3.564 27.339-5.557 31.297-20.331 3.96-14.777-3.638-29.698-16.937-33.261-13.297-3.563-27.337 5.56-31.296 20.337-3.959 14.774 3.639 29.692 16.936 33.255ZM129.862 433.514h.001a19.803 19.803 0 0 0 5.84 2.636c9.537 2.555 20.715-1.98 27.154-11.827 3.708-5.668 5.335-12.276 4.58-18.605-.789-6.626-4.058-12.157-9.207-15.578-5.151-3.42-11.485-4.266-17.837-2.384-6.068 1.797-11.45 5.91-15.156 11.579-7.818 11.957-5.744 27.29 4.625 34.179ZM181.203 443.57l-.002-.005c-7.281-9.085-21.61-9.832-31.946-1.662-10.33 8.177-12.821 22.223-5.555 31.31 2.649 3.316 6.238 5.523 10.23 6.593 6.957 1.864 15.141.273 21.719-4.923 10.328-8.177 12.821-22.223 5.554-31.313Z"/></g><g opacity=".1" fill="#fff"><path d="M51.744 227.234c5.021-9.273 4.977-20.315-.12-29.537-5.097-9.223-14.422-15.135-24.945-15.817l-25.355-1.644a19.372 19.372 0 0 0-11.847 3.08 19.377 19.377 0 0 0-7.682 9.53 19.353 19.353 0 0 0-.483 12.227 19.334 19.334 0 0 0 6.906 10.099l.225.17a38.26 38.26 0 0 1 14.648 26.742 19.352 19.352 0 0 0 4.874 11.218 19.347 19.347 0 0 0 10.61 6.098 19.37 19.37 0 0 0 12.157-1.431 19.38 19.38 0 0 0 8.914-8.392l12.098-22.343ZM22.405 173.019c3.326 2.798 7.678 3.916 12.253 3.146 4.355-.732 8.412-3.111 11.426-6.701 3.01-3.59 4.65-7.999 4.62-12.417-.034-4.64-1.886-8.735-5.211-11.527-6.684-5.619-17.304-4.024-23.677 3.559-5.068 6.045-5.93 14.088-2.692 19.948a14.105 14.105 0 0 0 3.28 3.992ZM49.824 187.982c5 9.046 17.243 11.887 27.293 6.333 10.052-5.555 14.162-17.434 9.163-26.48-4.999-9.046-17.243-11.885-27.296-6.33-10.05 5.554-14.159 17.432-9.16 26.477ZM60.482 218.576v.001c.297 1.622.849 3.14 1.617 4.53 3.585 6.488 11.859 10.169 20.537 8.522 4.995-.947 9.415-3.509 12.445-7.213 3.171-3.877 4.46-8.526 3.627-13.091-.833-4.567-3.674-8.432-8-10.886-4.133-2.345-9.16-3.113-14.154-2.165-10.538 2.001-17.748 11.108-16.072 20.302ZM81.784 251.573v-.004c1.122-8.668-5.937-16.805-15.738-18.138-9.801-1.327-18.693 4.642-19.822 13.303-.413 3.159.263 6.249 1.763 8.964 2.615 4.733 7.738 8.329 13.973 9.18 9.8 1.326 18.693-4.642 19.824-13.305Z"/></g><g opacity=".1" fill="#fff"><path d="M257.124 372.681a13.675 13.675 0 0 0-13.148-.953 13.674 13.674 0 0 0-7.889 10.561l-1.596 11.228a8.646 8.646 0 0 0 .966 5.376 8.656 8.656 0 0 0 3.98 3.744 8.632 8.632 0 0 0 5.424.631 8.631 8.631 0 0 0 4.73-2.728l.083-.095a17.077 17.077 0 0 1 12.4-5.606 8.63 8.63 0 0 0 5.158-1.787 8.635 8.635 0 0 0 3.075-4.513 8.64 8.64 0 0 0-.222-5.459 8.644 8.644 0 0 0-3.431-4.253l-9.53-6.146ZM231.998 383.889c1.359-1.384 2.004-3.283 1.818-5.345-.177-1.963-1.098-3.85-2.593-5.313-1.495-1.462-3.401-2.343-5.368-2.479-2.066-.143-3.951.541-5.307 1.926-2.729 2.782-2.381 7.563.777 10.657 2.517 2.462 6.067 3.12 8.785 1.878a6.27 6.27 0 0 0 1.888-1.324ZM239.591 372.197c4.196-1.916 5.878-7.268 3.749-11.929-2.129-4.663-7.276-6.897-11.472-4.981-4.195 1.917-5.876 7.269-3.747 11.932 2.129 4.661 7.275 6.895 11.47 4.978ZM253.569 368.498a6.642 6.642 0 0 0 2.071-.565c3.01-1.375 4.93-4.931 4.493-8.849-.251-2.255-1.24-4.309-2.786-5.784-1.617-1.543-3.642-2.275-5.702-2.06-2.06.215-3.877 1.347-5.117 3.189-1.184 1.759-1.697 3.97-1.445 6.225.531 4.757 4.338 8.276 8.486 7.844ZM268.979 360.143h-.002c-3.819-.794-7.68 2.069-8.608 6.385-.924 4.317 1.429 8.477 5.244 9.275 1.392.291 2.79.096 4.05-.479 2.195-1.003 3.97-3.16 4.561-5.905.924-4.316-1.428-8.477-5.245-9.276Z"/></g><g opacity=".1" fill="#fff"><path d="M391.79 371.614a9.965 9.965 0 0 0-6.946-6.637 9.966 9.966 0 0 0-9.334 2.275l-6.107 5.569a6.304 6.304 0 0 0-1.952 3.47 6.307 6.307 0 0 0 .499 3.95 6.292 6.292 0 0 0 2.756 2.872 6.285 6.285 0 0 0 3.924.661l.091-.014a12.443 12.443 0 0 1 9.57 2.603 6.305 6.305 0 0 0 3.728 1.389 6.29 6.29 0 0 0 3.822-1.109 6.298 6.298 0 0 0 2.408-3.171 6.308 6.308 0 0 0 .046-3.982l-2.505-7.876ZM372.47 366.254c1.406-.148 2.65-.915 3.502-2.161.811-1.185 1.169-2.672 1.008-4.189-.161-1.515-.824-2.894-1.866-3.884-1.095-1.039-2.472-1.529-3.876-1.38-2.825.298-4.848 3.146-4.509 6.35.272 2.551 1.962 4.568 4.065 5.132a4.584 4.584 0 0 0 1.676.132ZM382.162 363.207c3.248.87 6.676-1.357 7.643-4.965.967-3.608-.889-7.252-4.136-8.122-3.247-.87-6.675 1.358-7.642 4.966-.967 3.608.888 7.251 4.135 8.121ZM391.734 367.614c.448.296.928.51 1.427.643 2.328.624 5.058-.483 6.63-2.888.906-1.384 1.303-2.997 1.119-4.543-.193-1.618-.991-2.968-2.249-3.804-1.257-.835-2.804-1.041-4.355-.582-1.482.439-2.796 1.443-3.701 2.828-1.909 2.92-1.403 6.664 1.129 8.346ZM404.271 370.069l-.001-.001c-1.778-2.219-5.277-2.401-7.801-.406-2.522 1.997-3.131 5.427-1.356 7.646a4.73 4.73 0 0 0 2.498 1.609c1.699.456 3.697.067 5.303-1.202 2.522-1.996 3.131-5.426 1.357-7.646Z"/></g><g opacity=".05" fill="#fff"><path d="M360.835 162.962a10.507 10.507 0 0 0-5.264-8.655 10.507 10.507 0 0 0-10.127-.231l-7.739 4.005a6.65 6.65 0 0 0-2.935 3.002 6.644 6.644 0 0 0-.57 4.159 6.638 6.638 0 0 0 2.023 3.677 6.624 6.624 0 0 0 3.816 1.744l.096.011a13.12 13.12 0 0 1 9.037 5.262 6.632 6.632 0 0 0 3.417 2.433 6.642 6.642 0 0 0 4.196-.087 6.64 6.64 0 0 0 3.318-2.572 6.648 6.648 0 0 0 1.133-4.043l-.401-8.705ZM342.62 152.23c1.472.233 2.949-.209 4.156-1.245 1.15-.986 1.921-2.403 2.17-3.991.249-1.587-.049-3.173-.841-4.465-.831-1.357-2.1-2.233-3.571-2.464-2.958-.467-5.795 1.881-6.325 5.237-.418 2.672.752 5.188 2.74 6.336a4.845 4.845 0 0 0 1.671.592ZM353.323 151.771c3.07 1.773 7.169.44 9.138-2.97 1.97-3.411 1.075-7.629-1.995-9.401-3.07-1.772-7.169-.439-9.139 2.972-1.969 3.411-1.073 7.627 1.996 9.399ZM361.869 158.872c.375.424.805.772 1.277 1.045 2.202 1.271 5.284.888 7.541-1.132 1.3-1.163 2.145-2.698 2.379-4.322.246-1.7-.199-3.294-1.252-4.488-1.053-1.194-2.571-1.826-4.277-1.781-1.629.042-3.241.707-4.54 1.869-2.742 2.453-3.248 6.405-1.128 8.809ZM373.967 164.794v-.001c-1.205-2.745-4.719-3.886-7.834-2.542-3.114 1.345-4.67 4.672-3.468 7.416a4.985 4.985 0 0 0 2.105 2.321c1.606.928 3.747 1.077 5.729.224 3.114-1.346 4.67-4.673 3.468-7.418Z"/></g><g opacity=".05" fill="#fff"><path d="M625.895 34.723a10.51 10.51 0 0 0-2.844-9.722 10.507 10.507 0 0 0-9.723-2.844l-8.512 1.866a6.644 6.644 0 0 0-3.611 2.14 6.642 6.642 0 0 0-1.627 3.87 6.632 6.632 0 0 0 1.002 4.075 6.628 6.628 0 0 0 3.234 2.672l.091.035a13.121 13.121 0 0 1 7.366 7.422 6.659 6.659 0 0 0 2.672 3.234 6.634 6.634 0 0 0 4.075 1.002 6.644 6.644 0 0 0 3.871-1.626 6.646 6.646 0 0 0 2.141-3.612l1.865-8.512ZM611.078 19.642c1.362.607 2.903.562 4.337-.126 1.366-.655 2.477-1.824 3.129-3.293.652-1.47.774-3.078.344-4.531-.452-1.526-1.451-2.7-2.812-3.304-2.736-1.217-6.085.317-7.465 3.421-1.096 2.473-.617 5.206 1.007 6.83.415.414.904.756 1.46 1.003ZM621.535 21.97c2.507 2.507 6.812 2.28 9.596-.504 2.785-2.785 3.012-7.09.506-9.597-2.507-2.506-6.812-2.28-9.597.506-2.784 2.784-3.011 7.089-.505 9.595ZM627.952 31.04h.001c.251.507.577.955.963 1.34 1.797 1.798 4.873 2.225 7.577.859 1.556-.787 2.77-2.05 3.416-3.56.677-1.578.66-3.232-.048-4.658-.708-1.426-2.011-2.43-3.67-2.828-1.584-.38-3.314-.156-4.87.631-3.282 1.66-4.794 5.346-3.369 8.216ZM638.106 39.892v-.001c-.454-2.963-3.553-4.975-6.91-4.483-3.355.493-5.719 3.304-5.269 6.266a4.989 4.989 0 0 0 1.432 2.787c1.312 1.311 3.341 2.01 5.477 1.698 3.356-.493 5.72-3.305 5.27-6.267Z"/></g><g opacity=".05" fill="#fff"><path d="M621.089 291.529c-4.931-15.508-17.251-27.281-32.959-31.49-15.707-4.208-32.263-.173-44.286 10.793l-28.975 26.422a29.906 29.906 0 0 0-9.26 16.465 29.91 29.91 0 0 0 2.368 18.743 29.866 29.866 0 0 0 13.074 13.625 29.825 29.825 0 0 0 18.618 3.137l.431-.068c16.147-2.362 32.671 2.127 45.405 12.35a29.884 29.884 0 0 0 10.99 5.589c2.165.58 4.409.918 6.698 1.004 6.5.241 12.77-1.579 18.136-5.263a29.89 29.89 0 0 0 11.426-15.046 29.912 29.912 0 0 0 .216-18.892l-11.882-37.369ZM529.418 266.096c6.672-.701 12.573-4.341 16.617-10.251 3.848-5.623 5.548-12.681 4.784-19.874-.767-7.189-3.912-13.733-8.856-18.428-5.194-4.931-11.727-7.258-18.391-6.55-13.402 1.413-22.999 14.925-21.393 30.128 1.293 12.104 9.309 21.675 19.289 24.349a21.73 21.73 0 0 0 7.95.626ZM575.406 251.639c15.408 4.128 31.674-6.438 36.26-23.555 4.588-17.12-4.215-34.407-19.623-38.536-15.405-4.128-31.671 6.442-36.259 23.563-4.586 17.116 4.216 34.4 19.622 38.528ZM620.821 272.548l.002.001a22.957 22.957 0 0 0 6.766 3.053c11.049 2.961 23.999-2.294 31.46-13.702 4.296-6.567 6.18-14.223 5.306-21.555-.914-7.677-4.702-14.086-10.668-18.048-5.967-3.963-13.305-4.943-20.665-2.763-7.03 2.083-13.266 6.848-17.559 13.415-9.058 13.854-6.655 31.618 5.358 39.599ZM680.304 284.199l-.003-.005c-8.435-10.526-25.037-11.392-37.012-1.926-11.967 9.474-14.854 25.748-6.436 36.275 3.07 3.842 7.228 6.399 11.852 7.638 8.061 2.16 17.542.317 25.164-5.703 11.966-9.474 14.853-25.748 6.435-36.279Z"/></g><g opacity=".1" fill="#fff"><path d="M1362.38 6.108c.82 7.317 5.24 13.631 11.84 16.89a21.382 21.382 0 0 0 20.6-.867l15.2-9.158a13.52 13.52 0 0 0 5.56-6.485c1.12-2.723 1.33-5.67.61-8.525a13.49 13.49 0 0 0-4.59-7.203 13.486 13.486 0 0 0-7.98-3.04l-.2-.009a26.707 26.707 0 0 1-19.05-9.5 13.595 13.595 0 0 0-4.38-3.452 13.73 13.73 0 0 0-2.89-1.039c-2.86-.682-5.8-.43-8.51.73a13.487 13.487 0 0 0-6.4 5.663 13.516 13.516 0 0 0-1.77 8.363l1.96 17.632ZM1400.8 25.509c-3.02-.28-5.96.812-8.28 3.076-2.2 2.154-3.58 5.135-3.88 8.394-.3 3.258.52 6.44 2.3 8.96 1.87 2.648 4.56 4.26 7.58 4.535 6.07.56 11.52-4.585 12.16-11.473.5-5.484-2.21-10.44-6.4-12.51a9.909 9.909 0 0 0-3.48-.982ZM1379.12 27.851c-6.47-3.196-14.62.052-18.17 7.24-3.56 7.19-1.18 15.64 5.29 18.835 6.47 3.196 14.62-.054 18.17-7.244 3.55-7.188 1.18-15.635-5.29-18.83ZM1360.82 14.553a10.5 10.5 0 0 0-2.73-1.954c-4.64-2.292-10.85-1.107-15.17 3.293-2.49 2.534-4 5.763-4.27 9.094-.27 3.487.84 6.666 3.14 8.952 2.3 2.287 5.47 3.371 8.92 3.056 3.31-.302 6.5-1.864 8.98-4.398 5.25-5.344 5.75-13.438 1.13-18.043ZM1335.46 4.117v.002c2.81 5.417 10.1 7.271 16.25 4.132 6.15-3.144 8.87-10.108 6.07-15.525-1.02-1.976-2.64-3.478-4.58-4.438-3.39-1.672-7.76-1.694-11.67.302-6.15 3.144-8.87 10.109-6.07 15.527Z"/></g><g opacity=".1" fill="#fff"><path d="M910.721 232.945a12.023 12.023 0 0 0-11.122 3.254 12.02 12.02 0 0 0-3.253 11.122l2.134 9.737a7.602 7.602 0 0 0 2.448 4.132 7.607 7.607 0 0 0 4.427 1.861 7.59 7.59 0 0 0 4.662-1.147 7.585 7.585 0 0 0 3.057-3.7l.04-.103a15.01 15.01 0 0 1 8.49-8.427 7.59 7.59 0 0 0 3.7-3.056 7.592 7.592 0 0 0 1.146-4.662 7.598 7.598 0 0 0-1.86-4.428 7.604 7.604 0 0 0-4.132-2.449l-9.737-2.134ZM893.47 249.895c.693-1.558.642-3.32-.145-4.961-.749-1.562-2.087-2.834-3.767-3.58-1.681-.745-3.521-.884-5.183-.393-1.746.517-3.089 1.66-3.78 3.217-1.392 3.13.363 6.96 3.914 8.539 2.829 1.254 5.955.706 7.812-1.152a5.513 5.513 0 0 0 1.149-1.67ZM896.132 237.932c2.867-2.867 2.609-7.791-.577-10.976-3.186-3.187-8.111-3.446-10.978-.579-2.867 2.867-2.608 7.792.579 10.978 3.185 3.186 8.109 3.445 10.976.577ZM906.508 230.592v-.001a5.82 5.82 0 0 0 1.533-1.101c2.056-2.056 2.545-5.575.982-8.668-.9-1.78-2.346-3.168-4.071-3.908-1.807-.775-3.699-.755-5.33.054-1.631.81-2.779 2.302-3.235 4.199-.435 1.812-.178 3.791.722 5.571 1.899 3.755 6.115 5.484 9.399 3.854ZM916.634 218.977h-.002c-3.389.519-5.69 4.064-5.128 7.904.564 3.839 3.78 6.543 7.168 6.028 1.236-.188 2.327-.778 3.188-1.639 1.5-1.5 2.299-3.822 1.943-6.265-.565-3.838-3.781-6.543-7.169-6.028Z"/></g><g opacity=".1" fill="#fff"><path d="M1000.58 343.93a12.024 12.024 0 0 0-10.761-4.305 12.019 12.019 0 0 0-9.424 6.743l-4.331 8.978a7.603 7.603 0 0 0-.623 4.762 7.603 7.603 0 0 0 2.334 4.197 7.597 7.597 0 0 0 4.376 1.975 7.58 7.58 0 0 0 4.689-1.025l.095-.056a15.006 15.006 0 0 1 11.881-1.39 7.625 7.625 0 0 0 3.124.277 7.689 7.689 0 0 0 1.67-.398 7.546 7.546 0 0 0 3.78-2.961 7.54 7.54 0 0 0 1.27-4.631 7.526 7.526 0 0 0-1.74-4.478l-6.34-7.688ZM976.544 346.618c1.507-.798 2.554-2.216 2.948-3.993.375-1.691.107-3.517-.755-5.142-.862-1.623-2.224-2.868-3.835-3.507-1.693-.671-3.455-.601-4.959.198-3.028 1.603-4.011 5.7-2.192 9.134 1.453 2.733 4.25 4.231 6.858 3.916a5.556 5.556 0 0 0 1.935-.606ZM986.022 338.849c4.025-.486 6.861-4.52 6.321-8.993-.541-4.473-4.255-7.717-8.281-7.23-4.025.486-6.861 4.521-6.32 8.994.54 4.472 4.254 7.715 8.28 7.229ZM998.716 339.478l.001-.001a5.81 5.81 0 0 0 1.883.079c2.89-.348 5.45-2.815 6.12-6.213.4-1.956.11-3.941-.79-5.588-.94-1.724-2.44-2.877-4.22-3.246-1.786-.37-3.61.095-5.14 1.306-1.461 1.158-2.48 2.873-2.87 4.829-.824 4.127 1.426 8.089 5.016 8.834ZM1013.85 336.589v-.001c-2.99-1.684-6.98-.315-8.91 3.053-1.93 3.369-1.07 7.482 1.92 9.167 1.09.615 2.31.825 3.52.679 2.1-.255 4.16-1.588 5.39-3.73 1.93-3.369 1.07-7.482-1.92-9.168Z"/></g><g opacity=".1" fill="#fff"><path d="M914.028 115.113a12.018 12.018 0 0 0-11.587-.154 12.022 12.022 0 0 0-6.375 9.677l-.818 9.935a7.603 7.603 0 0 0 1.127 4.668 7.605 7.605 0 0 0 3.686 3.078 7.592 7.592 0 0 0 4.793.273 7.581 7.581 0 0 0 4.009-2.64l.068-.087a15.01 15.01 0 0 1 10.59-5.563 7.584 7.584 0 0 0 4.434-1.836 7.587 7.587 0 0 0 2.464-4.119 7.594 7.594 0 0 0-.478-4.779 7.6 7.6 0 0 0-3.231-3.554l-8.682-4.899ZM892.562 126.252c1.12-1.286 1.588-2.985 1.318-4.785-.258-1.713-1.163-3.321-2.551-4.528-1.387-1.205-3.106-1.879-4.839-1.897-1.82-.018-3.44.68-4.557 1.966-2.25 2.583-1.697 6.76 1.234 9.312 2.337 2.029 5.486 2.422 7.807 1.192a5.526 5.526 0 0 0 1.588-1.26ZM898.618 115.598c3.583-1.899 4.781-6.682 2.671-10.662-2.111-3.982-6.742-5.675-10.325-3.776-3.582 1.899-4.78 6.683-2.669 10.664 2.11 3.98 6.741 5.673 10.323 3.774ZM910.692 111.627a5.838 5.838 0 0 0 1.788-.604c2.57-1.362 4.07-4.582 3.484-7.997-.338-1.966-1.312-3.718-2.745-4.931-1.499-1.27-3.314-1.808-5.11-1.513-1.797.296-3.333 1.384-4.325 3.064-.948 1.605-1.284 3.572-.946 5.538.713 4.147 4.236 7.037 7.854 6.443ZM923.781 103.496h-.001c-3.393-.499-6.633 2.215-7.223 6.05-.587 3.835 1.693 7.364 5.083 7.867 1.237.183 2.453-.061 3.529-.631 1.874-.994 3.32-2.978 3.696-5.418.587-3.836-1.693-7.365-5.084-7.868Z"/></g><g opacity=".05" fill="#fff"><path d="M798.139 33.471a12.022 12.022 0 0 0-9.756 6.255 12.022 12.022 0 0 0 .011 11.588l4.791 8.742a7.606 7.606 0 0 0 3.512 3.275 7.604 7.604 0 0 0 4.773.538 7.598 7.598 0 0 0 4.15-2.413 7.584 7.584 0 0 0 1.891-4.411l.009-.11a15.008 15.008 0 0 1 5.773-10.477 7.61 7.61 0 0 0 2.689-3.975 7.589 7.589 0 0 0-.213-4.796 7.594 7.594 0 0 0-3.032-3.725 7.603 7.603 0 0 0-4.654-1.186l-9.944.695ZM786.36 54.594c.226-1.69-.319-3.367-1.537-4.72-1.158-1.288-2.8-2.13-4.623-2.373-1.822-.242-3.627.143-5.083 1.083-1.53.987-2.496 2.462-2.721 4.15-.454 3.396 2.308 6.577 6.16 7.092 3.068.406 5.913-1 7.172-3.306a5.52 5.52 0 0 0 .632-1.926ZM785.545 42.366c1.944-3.559.308-8.211-3.645-10.37-3.955-2.16-8.753-1.022-10.697 2.537-1.943 3.559-.307 8.21 3.648 10.37 3.953 2.16 8.751 1.021 10.694-2.537ZM793.433 32.4c.475-.44.862-.942 1.16-1.49 1.394-2.552.872-6.066-1.499-8.593-1.364-1.455-3.143-2.38-5.007-2.603-1.951-.234-3.761.317-5.098 1.553-1.337 1.237-2.019 2.991-1.921 4.94.093 1.862.896 3.688 2.261 5.142 2.88 3.069 7.412 3.54 10.104 1.05ZM799.878 18.403h-.002c-3.106 1.454-4.315 5.503-2.694 9.029 1.623 3.524 5.47 5.213 8.576 3.765 1.133-.528 2.014-1.402 2.597-2.47 1.017-1.862 1.13-4.315.1-6.559-1.623-3.524-5.471-5.213-8.577-3.765Z"/></g><g opacity=".05" fill="#fff"><path d="M119.273 61.95a12.018 12.018 0 0 0-2.846-11.233 12.02 12.02 0 0 0-10.996-3.657l-9.809 1.779a7.602 7.602 0 0 0-4.218 2.296 7.603 7.603 0 0 0-2.02 4.356 7.592 7.592 0 0 0 .975 4.7 7.583 7.583 0 0 0 3.587 3.19l.102.044a15.008 15.008 0 0 1 8.111 8.791 7.595 7.595 0 0 0 2.92 3.809 7.59 7.59 0 0 0 4.617 1.315 7.602 7.602 0 0 0 4.493-1.697 7.605 7.605 0 0 0 2.597-4.04l2.487-9.653ZM102.963 44.093c1.532.75 3.295.763 4.964.036 1.588-.692 2.907-1.982 3.714-3.635.805-1.652 1.012-3.486.581-5.165-.453-1.763-1.546-3.147-3.077-3.894-3.077-1.505-6.969.109-8.676 3.6-1.356 2.782-.922 5.926.867 7.85a5.514 5.514 0 0 0 1.627 1.208ZM114.821 47.189c2.761 2.97 7.691 2.89 10.991-.177 3.3-3.068 3.738-7.98.977-10.95-2.761-2.97-7.691-2.89-10.992.179-3.299 3.067-3.737 7.978-.976 10.948ZM121.779 57.825c.267.59.621 1.115 1.045 1.572 1.98 2.13 5.479 2.747 8.626 1.297 1.812-.834 3.252-2.229 4.054-3.926.84-1.777.889-3.669.14-5.328-.75-1.66-2.199-2.861-4.078-3.386-1.796-.5-3.782-.316-5.594.519-3.822 1.76-5.703 5.911-4.193 9.252ZM133.017 68.367v-.001c-.395-3.407-3.854-5.835-7.712-5.413-3.856.424-6.676 3.54-6.284 6.944.142 1.242.692 2.354 1.521 3.245 1.444 1.554 3.736 2.438 6.19 2.17 3.857-.424 6.676-3.54 6.285-6.945Z"/></g><g opacity=".05" fill="#fff"><path d="M428.959 19.03c4.759 7.43 12.864 11.867 21.681 11.867 8.818 0 16.923-4.437 21.681-11.867l11.468-17.906a16.221 16.221 0 0 0 2.539-9.923 16.213 16.213 0 0 0-3.871-9.484 16.191 16.191 0 0 0-8.759-5.302 16.175 16.175 0 0 0-10.192.97l-.216.096a32.017 32.017 0 0 1-25.515-.096 16.194 16.194 0 0 0-10.189-.97 16.188 16.188 0 0 0-8.76 5.301 16.205 16.205 0 0 0-3.873 9.484 16.221 16.221 0 0 0 2.538 9.925l11.468 17.905ZM480.542 19.485c-3.397 1.303-5.977 4.038-7.265 7.7-1.227 3.486-1.126 7.421.284 11.082 1.41 3.657 3.976 6.644 7.224 8.409 3.412 1.853 7.161 2.155 10.551.849 6.822-2.62 9.952-11.044 6.977-18.782-2.376-6.158-7.917-10.046-13.52-10.046-1.43 0-2.865.254-4.251.788ZM458.484 33.511c-8.649 0-15.686 7.818-15.686 17.426 0 9.611 7.037 17.43 15.686 17.43 8.648 0 15.684-7.819 15.684-17.43 0-9.608-7.036-17.426-15.684-17.426ZM431.763 28.933h-.001a12.44 12.44 0 0 0-3.973-.649c-6.202 0-12.247 4.57-14.554 11.592-1.329 4.042-1.241 8.316.246 12.034 1.556 3.892 4.439 6.718 8.12 7.956 3.681 1.238 7.663.721 11.211-1.453 3.39-2.078 5.987-5.449 7.314-9.491 2.8-8.527-.952-17.494-8.363-19.988ZM398.973 31.179l.003.002c5.895 4.33 14.712 2.453 19.655-4.185 4.939-6.642 4.167-15.57-1.72-19.903-2.147-1.581-4.683-2.337-7.279-2.337-4.525 0-9.233 2.296-12.379 6.518-4.938 6.642-4.167 15.57 1.72 19.905Z"/></g><g opacity=".2" fill="#fff"><path d="M1191.18-5.76a10.522 10.522 0 0 0-9.85-2.398 10.511 10.511 0 0 0-7.32 6.997l-2.64 8.305a6.625 6.625 0 0 0 .05 4.198 6.609 6.609 0 0 0 2.54 3.344 6.622 6.622 0 0 0 4.03 1.17 6.64 6.64 0 0 0 3.93-1.465l.07-.061a13.132 13.132 0 0 1 10.11-2.669 6.657 6.657 0 0 0 4.14-.696 6.667 6.667 0 0 0 2.91-3.029c.62-1.304.8-2.745.52-4.165a6.639 6.639 0 0 0-2.05-3.66l-6.44-5.871ZM1170.71-.469c1.2-.876 1.94-2.233 2.06-3.82.11-1.51-.34-3.056-1.29-4.356-.95-1.298-2.28-2.208-3.75-2.562-1.55-.372-3.07-.094-4.27.783-2.42 1.76-2.77 5.427-.77 8.175 1.59 2.186 4.2 3.137 6.42 2.543a4.874 4.874 0 0 0 1.6-.763Z"/></g></g></svg>